<svg width="146" height="43" viewBox="0 0 146 43" fill="none" xmlns="http://www.w3.org/2000/svg">
<path d="M44.7916 24.9273C41.8958 24.9273 39.5631 22.4436 39.7843 19.4955C39.9653 16.9513 42.0768 14.9321 44.6106 14.8513C47.2852 14.7504 49.5374 16.7494 49.7989 19.3946L49.0548 19.4754C48.8336 17.1532 46.8226 15.4369 44.4698 15.6186C42.4589 15.76 40.8099 17.3552 40.5686 19.3542C40.2468 21.959 42.2779 24.1802 44.8117 24.1802C45.1334 24.1802 45.4552 24.1398 45.7568 24.0792L45.9177 24.8061C45.5356 24.8869 45.1535 24.9273 44.7916 24.9273Z" fill="#585D65" stroke="#585D65" stroke-width="0.1875" stroke-miterlimit="10"/>
<path d="M23.5559 13.1559C19.8156 13.4588 16.7187 10.3289 17.0203 6.59337C17.2616 3.64529 19.6346 1.24241 22.5706 1.02029C26.3109 0.717409 29.4078 3.84722 29.1061 7.58279C28.8648 10.5309 26.4919 12.9338 23.5559 13.1559ZM23.4956 1.76741C20.2177 1.50491 17.503 4.23087 17.7644 7.52222C17.9655 10.1068 20.0569 12.2068 22.6309 12.4088C25.9087 12.6713 28.6235 9.94529 28.3621 6.65395C28.161 4.06933 26.0696 1.96933 23.4956 1.76741Z" fill="#585D65" stroke="#585D65" stroke-width="0.1875" stroke-miterlimit="10"/>
<path d="M34.3348 42.799L34.1739 42.7384C34.1337 42.7182 30.0716 40.9211 26.0497 37.4278C20.7206 32.7836 17.8651 27.2509 17.845 21.4355C17.845 20.5471 17.9656 19.699 18.2271 18.8711C18.2472 18.8105 18.2673 18.7298 18.3075 18.649C19.0516 16.448 20.9418 14.8932 23.2544 14.5701C25.567 14.2471 27.8193 15.2365 29.1264 17.1548L29.2069 17.2759C29.227 17.2961 30.7553 19.8605 33.5103 21.9605C37.1702 24.7673 41.1519 25.5144 45.3347 24.1817H45.3548C45.5157 24.1413 49.1354 23.1519 49.0147 19.4567C49.0147 19.2144 49.2158 19.0124 49.4773 19.0528C49.6381 19.073 49.7588 19.2144 49.7789 19.3557C50.0202 20.4057 50.6436 24.1413 49.055 28.6644C46.9636 34.6009 42.0568 39.3259 34.4756 42.698L34.3348 42.799ZM24.1393 15.2567C23.8778 15.2567 23.6164 15.2769 23.355 15.3173C21.3038 15.5999 19.6951 16.9326 19.0113 18.8913C18.9912 18.9519 18.9711 19.0326 18.951 19.0932C18.7097 19.8403 18.589 20.6278 18.6091 21.4355C18.6494 28.5028 22.9528 33.7326 26.5524 36.8624C30.0515 39.9115 33.5706 41.6278 34.3348 41.9711C41.6547 38.6798 46.3603 34.1365 48.3712 28.4423C49.2963 25.7971 49.437 23.4144 49.3566 21.7586C48.331 24.0807 45.7972 24.848 45.576 24.9086C40.0459 26.6653 35.7223 24.6057 33.0478 22.5461C30.2526 20.3855 28.7041 17.8817 28.5835 17.6798L28.5231 17.599C27.4976 16.1048 25.8888 15.2567 24.1393 15.2567Z" fill="#585D65" stroke="#585D65" stroke-width="0.1875" stroke-miterlimit="10"/>
<path d="M56.4222 18.6893C56.2815 18.6893 56.1608 18.6287 56.1005 18.5076C56.0401 18.3864 56.02 18.2653 56.0804 18.1441L58.9158 11.3797C58.9963 11.198 59.1169 11.1172 59.2778 11.1172C59.4387 11.1172 59.5593 11.198 59.6398 11.3797L62.4953 18.1643C62.5556 18.2855 62.5355 18.4066 62.4752 18.5278C62.3948 18.6489 62.2942 18.7095 62.1535 18.7095C62.073 18.7095 62.0127 18.6893 61.9524 18.6489C61.892 18.6085 61.8317 18.548 61.8116 18.4672L59.1571 12.0056H59.4588L56.7842 18.4672C56.744 18.548 56.7038 18.6085 56.6434 18.6489C56.563 18.6893 56.5027 18.6893 56.4222 18.6893ZM57.0657 16.8922L57.3473 16.246H61.2686L61.5502 16.8922H57.0657Z" fill="#585D65" stroke="#585D65" stroke-width="0.1875" stroke-miterlimit="10"/>
<path d="M63.903 18.6895C63.8024 18.6895 63.7019 18.6491 63.6416 18.5885C63.5812 18.5279 63.541 18.427 63.541 18.326V13.7626C63.541 13.6414 63.5812 13.5606 63.6416 13.4799C63.7019 13.4193 63.8024 13.3789 63.903 13.3789C64.0236 13.3789 64.1041 13.4193 64.1845 13.4799C64.2449 13.5404 64.2851 13.6414 64.2851 13.7626V15.6808H65.4715V16.3674H64.2851V18.326C64.2851 18.427 64.2449 18.5279 64.1845 18.5885C64.1041 18.6693 64.0236 18.6895 63.903 18.6895ZM67.6434 18.6087C67.583 18.6693 67.5026 18.7097 67.3819 18.7097C67.2814 18.7097 67.1808 18.6693 67.1205 18.6087L64.8079 16.0645L67.02 13.5202C67.0803 13.4395 67.1607 13.4193 67.2613 13.3991C67.3618 13.3991 67.4423 13.4193 67.5026 13.4799C67.583 13.5606 67.6232 13.6212 67.6232 13.7222C67.6232 13.8029 67.6031 13.8837 67.5428 13.9645L65.733 16.0241L67.6434 18.1443C67.7037 18.2251 67.7439 18.2856 67.7439 18.3866C67.7439 18.4876 67.7238 18.5279 67.6434 18.6087Z" fill="#585D65" stroke="#585D65" stroke-width="0.1875" stroke-miterlimit="10"/>
<path d="M70.8207 18.7501C70.318 18.7501 69.8756 18.6289 69.4935 18.3866C69.0913 18.1443 68.7896 17.8212 68.5684 17.4174C68.3472 17.0136 68.2266 16.5491 68.2266 16.0443C68.2266 15.5193 68.3472 15.0751 68.5885 14.6511C68.8299 14.2472 69.1516 13.9241 69.5538 13.6818C69.956 13.4395 70.4185 13.3184 70.9212 13.3184C71.424 13.3184 71.8865 13.4395 72.2887 13.6818C72.6909 13.9241 73.0126 14.2472 73.2539 14.6511C73.4953 15.0549 73.6159 15.5193 73.6159 16.0443L73.3143 16.2866C73.3143 16.7511 73.2137 17.1751 72.9925 17.5386C72.7713 17.902 72.4898 18.2049 72.1077 18.427C71.7055 18.6491 71.2832 18.7501 70.8207 18.7501ZM70.9011 18.0636C71.2832 18.0636 71.605 17.9828 71.9066 17.801C72.2083 17.6193 72.4295 17.377 72.6104 17.0741C72.7713 16.7712 72.8719 16.428 72.8719 16.0443C72.8719 15.6607 72.7914 15.3174 72.6104 15.0145C72.4496 14.7116 72.2083 14.4693 71.9066 14.2876C71.605 14.1059 71.2832 14.0251 70.9011 14.0251C70.5392 14.0251 70.1973 14.1059 69.9158 14.2876C69.6141 14.4693 69.3929 14.7116 69.2119 15.0145C69.0309 15.3174 68.9505 15.6607 68.9505 16.0443C68.9505 16.428 69.0309 16.7712 69.2119 17.0741C69.3929 17.377 69.6141 17.6193 69.9158 17.801C70.1973 17.9828 70.5191 18.0636 70.9011 18.0636ZM73.1936 18.6895C73.0931 18.6895 72.9925 18.6491 72.9322 18.5886C72.8518 18.528 72.8316 18.427 72.8316 18.3261V16.6703L73.0126 15.903L73.5757 16.0443V18.3261C73.5757 18.427 73.5355 18.528 73.4752 18.5886C73.3947 18.6693 73.3143 18.6895 73.1936 18.6895Z" fill="#585D65" stroke="#585D65" stroke-width="0.1875" stroke-miterlimit="10"/>
<path d="M77.3562 18.7507C76.8534 18.7507 76.3909 18.6296 76.0088 18.4074C75.6067 18.1853 75.305 17.8623 75.0838 17.4584C74.8626 17.0546 74.7419 16.5901 74.7419 16.0651C74.7419 15.5401 74.8626 15.0757 75.0838 14.6517C75.3251 14.2478 75.6268 13.9248 76.0491 13.7026C76.4513 13.4805 76.9138 13.3594 77.4366 13.3594C77.9595 13.3594 78.422 13.4805 78.8242 13.7026C79.2264 13.9248 79.5481 14.2478 79.7693 14.6517C79.9905 15.0555 80.1112 15.52 80.1313 16.0651L79.6889 16.3075C79.6889 16.7921 79.5883 17.2161 79.3872 17.5796C79.1861 17.943 78.9046 18.2459 78.5628 18.4478C78.2008 18.6498 77.7986 18.7507 77.3562 18.7507ZM77.4567 20.7901C76.954 20.7901 76.4915 20.6892 76.1094 20.5075C75.7273 20.3257 75.4056 20.0632 75.1441 19.7199C75.0637 19.6392 75.0436 19.5584 75.0436 19.4776C75.0436 19.3969 75.1039 19.3161 75.1844 19.2555C75.2648 19.1949 75.3653 19.1748 75.4659 19.195C75.5664 19.2151 75.6469 19.2555 75.7072 19.3363C75.8882 19.5786 76.1295 19.7603 76.4311 19.9017C76.7328 20.043 77.0545 20.1238 77.4567 20.1238C77.8187 20.1238 78.1405 20.043 78.422 19.8613C78.7035 19.6796 78.9448 19.4373 79.1057 19.1344C79.2666 18.8113 79.3671 18.4478 79.3671 18.0238V16.5498L79.6487 15.9844L80.1112 16.0651V18.044C80.1112 18.569 79.9905 19.0334 79.7693 19.4574C79.528 19.8815 79.2264 20.2046 78.8242 20.4469C78.422 20.6892 77.9595 20.7901 77.4567 20.7901ZM77.4366 18.0642C77.8187 18.0642 78.1606 17.9834 78.4421 17.8017C78.7437 17.6401 78.9649 17.3978 79.1258 17.0949C79.2867 16.7921 79.3671 16.4488 79.3671 16.0449C79.3671 15.6411 79.2867 15.2978 79.1258 14.995C78.9649 14.6921 78.7236 14.4498 78.4421 14.268C78.1405 14.1065 77.8187 14.0055 77.4366 14.0055C77.0545 14.0055 76.7127 14.0863 76.4311 14.268C76.1295 14.4296 75.9083 14.6719 75.7273 14.995C75.5664 15.2978 75.486 15.6613 75.486 16.0449C75.486 16.4488 75.5664 16.7921 75.7273 17.0949C75.8882 17.3978 76.1295 17.6401 76.4311 17.8017C76.7127 17.9834 77.0545 18.0642 77.4366 18.0642Z" fill="#585D65" stroke="#585D65" stroke-width="0.1875" stroke-miterlimit="10"/>
<path d="M83.9524 18.7501C83.4295 18.7501 82.967 18.6289 82.5648 18.4068C82.1627 18.1847 81.8409 17.8616 81.6197 17.4578C81.3985 17.0539 81.2778 16.5895 81.2778 16.0645C81.2778 15.5395 81.3784 15.0751 81.5996 14.6712C81.8208 14.2674 82.1224 13.9443 82.4844 13.7222C82.8665 13.4799 83.3089 13.3789 83.7915 13.3789C84.2742 13.3789 84.7166 13.5001 85.0785 13.7222C85.4405 13.9443 85.722 14.2472 85.9231 14.651C86.1242 15.0549 86.2248 15.4991 86.2248 16.0039C86.2248 16.1049 86.1846 16.1856 86.1242 16.2462C86.0639 16.3068 85.9835 16.3472 85.8829 16.3472H81.7806V15.7212H85.9634L85.541 16.0241C85.541 15.6404 85.4807 15.3174 85.3399 15.0145C85.1992 14.7116 84.9981 14.4895 84.7367 14.3077C84.4752 14.1462 84.1736 14.0654 83.8116 14.0654C83.4497 14.0654 83.1279 14.1462 82.8464 14.3279C82.5648 14.5097 82.3637 14.752 82.2029 15.0549C82.042 15.3577 81.9817 15.7212 81.9817 16.1049C81.9817 16.5087 82.0621 16.852 82.2431 17.1549C82.404 17.4578 82.6453 17.7001 82.9469 17.8818C83.2486 18.0635 83.5904 18.1443 83.9725 18.1443C84.2138 18.1443 84.435 18.1039 84.6763 18.0231C84.9177 17.9424 85.0986 17.8414 85.2394 17.7203C85.3198 17.6597 85.4003 17.6395 85.4807 17.6193C85.5612 17.6193 85.6416 17.6395 85.722 17.7001C85.8025 17.7808 85.8427 17.8616 85.8427 17.9424C85.8427 18.0231 85.8025 18.1039 85.722 18.1847C85.5008 18.3664 85.2394 18.5078 84.9177 18.6289C84.5758 18.6895 84.254 18.7501 83.9524 18.7501Z" fill="#585D65" stroke="#585D65" stroke-width="0.1875" stroke-miterlimit="10"/>
<path d="M87.8735 18.6895C87.7529 18.6895 87.6724 18.6491 87.592 18.5885C87.5317 18.5279 87.4915 18.427 87.4915 18.3058V13.7626C87.4915 13.6414 87.5317 13.5606 87.592 13.4799C87.6523 13.4193 87.7529 13.3789 87.8735 13.3789C88.0344 13.3789 88.1752 13.4597 88.2757 13.6212L90.4073 16.7308L92.5389 13.6212C92.6395 13.4597 92.7803 13.3789 92.9411 13.3789C93.0618 13.3789 93.1422 13.4193 93.2227 13.4799C93.283 13.5404 93.3232 13.6414 93.3232 13.7626V18.3058C93.3232 18.427 93.283 18.5077 93.2227 18.5885C93.1623 18.6491 93.0618 18.6895 92.9411 18.6895C92.8205 18.6895 92.74 18.6491 92.6797 18.5885C92.6194 18.5279 92.5792 18.427 92.5792 18.3058V14.2472L92.8205 14.3279L90.7492 17.3164C90.6486 17.4578 90.528 17.5385 90.3872 17.5385C90.2465 17.5385 90.1459 17.4578 90.0454 17.3164L87.9741 14.3481L88.2154 14.2674V18.3058C88.2154 18.427 88.1752 18.5077 88.1148 18.5885C88.0746 18.6693 87.9741 18.6895 87.8735 18.6895Z" fill="#585D65" stroke="#585D65" stroke-width="0.1875" stroke-miterlimit="10"/>
<path d="M97.3452 18.7501C96.8827 18.7501 96.4805 18.6491 96.1185 18.4674C95.7565 18.2856 95.475 18.0029 95.2739 17.6193C95.0728 17.2558 94.9521 16.8116 94.9521 16.2664V13.7424C94.9521 13.6414 94.9924 13.5606 95.0527 13.4799C95.1331 13.3991 95.2136 13.3789 95.3141 13.3789C95.4147 13.3789 95.5152 13.4193 95.5755 13.4799C95.656 13.5606 95.6761 13.6414 95.6761 13.7424V16.2664C95.6761 16.6702 95.7565 16.9933 95.8973 17.2558C96.0582 17.5183 96.2593 17.7001 96.5207 17.8414C96.7821 17.9626 97.0837 18.0433 97.4055 18.0433C97.7273 18.0433 98.0088 17.9828 98.2501 17.8616C98.5115 17.7404 98.7126 17.5789 98.8534 17.3568C98.9942 17.1347 99.0746 16.8924 99.0746 16.6299H99.5974C99.5773 17.0337 99.4768 17.3972 99.2556 17.7203C99.0545 18.0433 98.773 18.2856 98.4311 18.4674C98.1496 18.6693 97.7675 18.7501 97.3452 18.7501ZM99.4768 18.6895C99.3762 18.6895 99.2757 18.6491 99.2154 18.5885C99.155 18.5279 99.1148 18.427 99.1148 18.3058V13.7424C99.1148 13.6414 99.155 13.5404 99.2154 13.4799C99.2757 13.4193 99.3762 13.3789 99.4768 13.3789C99.5773 13.3789 99.6779 13.4193 99.7382 13.4799C99.8187 13.5404 99.8388 13.6414 99.8388 13.7424V18.3058C99.8388 18.427 99.7986 18.5077 99.7382 18.5885C99.6779 18.6693 99.5974 18.6895 99.4768 18.6895Z" fill="#585D65" stroke="#585D65" stroke-width="0.1875" stroke-miterlimit="10"/>
<path d="M101.467 18.6093C101.387 18.5286 101.347 18.468 101.347 18.367C101.347 18.2863 101.387 18.2055 101.447 18.1247L102.795 16.4084L103.76 16.4286L102.03 18.569C101.95 18.6699 101.849 18.7103 101.749 18.7103C101.628 18.7103 101.528 18.6699 101.467 18.6093ZM105.087 18.6901C104.986 18.6901 104.906 18.6497 104.826 18.5892C104.765 18.5286 104.725 18.4276 104.725 18.3065V16.8728H103.177V16.7718C102.855 16.7718 102.553 16.7113 102.292 16.5699C102.03 16.4286 101.829 16.2468 101.689 15.9843C101.548 15.742 101.467 15.4593 101.467 15.1363C101.467 14.793 101.548 14.5103 101.709 14.2478C101.87 13.9853 102.091 13.7834 102.372 13.642C102.654 13.5007 102.976 13.4199 103.338 13.4199H105.047C105.167 13.4199 105.248 13.4603 105.328 13.5209C105.389 13.5815 105.429 13.6824 105.429 13.8036V18.367C105.429 18.468 105.389 18.569 105.308 18.6295C105.268 18.6699 105.188 18.6901 105.087 18.6901ZM103.358 16.2267H104.725V14.0863H103.358C103.036 14.0863 102.754 14.1872 102.533 14.369C102.312 14.5507 102.211 14.8132 102.211 15.1363C102.211 15.4795 102.312 15.742 102.533 15.944C102.754 16.1257 103.036 16.2267 103.358 16.2267Z" fill="#585D65" stroke="#585D65" stroke-width="0.1875" stroke-miterlimit="10"/>
<path d="M60.082 28.179C59.5189 28.179 59.0162 28.078 58.5335 27.8963C58.071 27.6943 57.6487 27.4318 57.3069 27.0886C56.965 26.7453 56.7036 26.3213 56.5025 25.8568C56.3215 25.3924 56.2209 24.8674 56.2209 24.302C56.2209 23.7367 56.3215 23.2319 56.5025 22.7674C56.6835 22.303 56.965 21.879 57.3069 21.5357C57.6487 21.1924 58.0509 20.9097 58.5335 20.728C58.9961 20.5261 59.5189 20.4453 60.082 20.4453C60.645 20.4453 61.1478 20.5463 61.6103 20.728C62.0728 20.9299 62.4951 21.1924 62.837 21.5357C63.1788 21.879 63.4604 22.303 63.6414 22.7674C63.8224 23.2319 63.9229 23.7568 63.9229 24.302C63.9229 24.8674 63.8224 25.3722 63.6414 25.8568C63.4604 26.3213 63.1788 26.7453 62.837 27.0886C62.4951 27.4318 62.0728 27.7145 61.6103 27.8963C61.1478 28.078 60.645 28.179 60.082 28.179ZM60.082 27.4722C60.5244 27.4722 60.9467 27.3915 61.3087 27.2299C61.6907 27.0684 62.0125 26.8463 62.294 26.5636C62.5756 26.2809 62.7968 25.9376 62.9375 25.554C63.0984 25.1703 63.1788 24.7463 63.1788 24.302C63.1788 23.8578 63.0984 23.4338 62.9375 23.0501C62.7767 22.6665 62.5756 22.3232 62.294 22.0405C62.0125 21.7578 61.6907 21.5357 61.3087 21.3742C60.9266 21.2126 60.5244 21.1318 60.082 21.1318C59.6396 21.1318 59.2173 21.2126 58.8352 21.3742C58.4531 21.5357 58.1313 21.7578 57.8498 22.0405C57.5683 22.3232 57.3471 22.6665 57.2063 23.0501C57.0454 23.4338 56.965 23.8578 56.965 24.302C56.965 24.7463 57.0454 25.1703 57.2063 25.554C57.3672 25.9376 57.5683 26.2809 57.8498 26.5636C58.1313 26.8463 58.4531 27.0684 58.8352 27.2299C59.2173 27.3915 59.6396 27.4722 60.082 27.4722Z" fill="#585D65" stroke="#585D65" stroke-width="0.1875" stroke-miterlimit="10"/>
<path d="M67.6031 28.1388C67.1004 28.1388 66.6378 28.0176 66.2558 27.7753C65.8536 27.533 65.5519 27.2099 65.3106 26.8061C65.0894 26.4022 64.9688 25.9378 64.9688 25.433C64.9688 24.908 65.0693 24.4638 65.2905 24.0397C65.5117 23.6359 65.8133 23.3128 66.1954 23.0705C66.5775 22.8282 67.0199 22.707 67.5025 22.707C67.9047 22.707 68.2667 22.7878 68.5885 22.9493C68.9102 23.1109 69.2119 23.333 69.4532 23.6561C69.5336 23.7368 69.5537 23.8176 69.5336 23.8984C69.5135 23.9791 69.4532 24.0599 69.3727 24.1205C69.2923 24.1811 69.232 24.1811 69.1314 24.1811C69.051 24.1609 68.9705 24.1205 68.9102 24.0397C68.5281 23.6157 68.0656 23.3936 67.5025 23.3936C67.1406 23.3936 66.8188 23.4743 66.5574 23.6561C66.2759 23.8378 66.0748 24.0599 65.9139 24.383C65.753 24.6859 65.6927 25.0291 65.6927 25.433C65.6927 25.8166 65.7731 26.1599 65.934 26.4628C66.0949 26.7657 66.3161 27.008 66.6177 27.1897C66.8993 27.3714 67.2411 27.4522 67.6031 27.4522C67.8444 27.4522 68.0857 27.4118 68.2868 27.3513C68.4879 27.2907 68.689 27.1695 68.8499 27.0282C68.9303 26.9676 69.0108 26.9272 69.0912 26.9272C69.1716 26.9272 69.2521 26.9474 69.3325 27.008C69.4129 27.0888 69.4532 27.1695 69.4532 27.2503C69.4532 27.3311 69.4331 27.4118 69.3526 27.4926C68.8901 27.9166 68.3069 28.1388 67.6031 28.1388Z" fill="#585D65" stroke="#585D65" stroke-width="0.1875" stroke-miterlimit="10"/>
<path d="M73.3946 28.1401C72.8718 28.1401 72.4294 28.0189 72.0071 27.7968C71.6049 27.5545 71.2831 27.2516 71.0418 26.8276C70.8005 26.4237 70.7 25.9593 70.7 25.4343C70.7 24.9093 70.8206 24.4449 71.0418 24.041C71.2831 23.6372 71.5848 23.3141 72.0071 23.0718C72.4093 22.8295 72.8718 22.7285 73.3946 22.7285C73.9175 22.7285 74.3599 22.8497 74.7621 23.0718C75.1643 23.3141 75.486 23.617 75.7072 24.041C75.9485 24.4449 76.0491 24.9093 76.0692 25.4343C76.0692 25.9593 75.9485 26.4035 75.7072 26.8276C75.4659 27.2314 75.1442 27.5545 74.742 27.7968C74.38 28.0189 73.9175 28.1401 73.3946 28.1401ZM73.3946 27.4535C73.7767 27.4535 74.0985 27.3727 74.4001 27.191C74.7017 27.0093 74.9229 26.7872 75.1039 26.4641C75.2648 26.1612 75.3452 25.8179 75.3452 25.4343C75.3452 25.0506 75.2648 24.7074 75.1039 24.3843C74.9431 24.0814 74.7017 23.8391 74.4001 23.6574C74.0985 23.4756 73.7767 23.3949 73.3946 23.3949C73.0125 23.3949 72.6908 23.4756 72.3891 23.6574C72.0875 23.8391 71.8663 24.0814 71.6853 24.3843C71.5244 24.6872 71.4239 25.0304 71.4239 25.4343C71.4239 25.8179 71.5043 26.1612 71.6853 26.4641C71.8462 26.767 72.0875 27.0093 72.3891 27.191C72.6908 27.3727 73.0326 27.4535 73.3946 27.4535Z" fill="#585D65" stroke="#585D65" stroke-width="0.1875" stroke-miterlimit="10"/>
<path d="M79.2065 28.1804C78.9249 28.1804 78.6635 28.1401 78.4021 28.0593C78.1407 27.9785 77.8993 27.8776 77.6781 27.7564C77.4569 27.6353 77.2961 27.4737 77.1754 27.3122C77.1151 27.2314 77.095 27.1304 77.095 27.0497C77.1151 26.9487 77.1754 26.8679 77.2558 26.8074C77.3363 26.767 77.4167 26.7468 77.5173 26.767C77.6178 26.7872 77.6983 26.8276 77.7586 26.9083C77.9195 27.0699 78.1206 27.2112 78.3619 27.3324C78.6032 27.4333 78.8847 27.4939 79.1662 27.4939C79.5483 27.4939 79.8701 27.4131 80.1114 27.2516C80.3527 27.0901 80.4734 26.8679 80.4734 26.5651C80.4734 26.3026 80.3728 26.0804 80.1918 25.9189C80.0108 25.7372 79.7695 25.6564 79.488 25.6362H79.0054C78.8847 25.6362 78.7842 25.5958 78.7037 25.5353C78.6233 25.4747 78.5831 25.3939 78.5831 25.3131C78.5831 25.2324 78.6233 25.1516 78.7037 25.091C78.7842 25.0304 78.8847 25.0102 79.0054 25.0102H79.488C79.7293 25.0102 79.9103 24.9295 80.0712 24.7679C80.2321 24.6064 80.2924 24.4247 80.2924 24.2026C80.2924 23.9602 80.1918 23.7785 79.9907 23.6372C79.7896 23.4958 79.5081 23.4151 79.1662 23.4151C78.8445 23.4151 78.5831 23.4756 78.382 23.5766C78.1608 23.6776 77.9999 23.8189 77.8792 23.9804C77.7988 24.0612 77.7184 24.1016 77.6379 24.1218C77.5374 24.142 77.4569 24.1218 77.3765 24.0612C77.2961 24.0208 77.2558 23.9401 77.2357 23.8391C77.2357 23.7381 77.2558 23.6574 77.3162 23.5766C77.5173 23.3343 77.7787 23.1324 78.1004 22.9708C78.4222 22.8093 78.7842 22.7285 79.1864 22.7285C79.5483 22.7285 79.8701 22.7891 80.1516 22.9103C80.4332 23.0314 80.6544 23.2131 80.8152 23.4151C80.9761 23.6372 81.0566 23.8795 81.0566 24.142C81.0566 24.3641 80.9962 24.5458 80.8957 24.7276C80.775 24.9093 80.6342 25.0506 80.4331 25.1718C80.2522 25.2929 80.031 25.3535 79.8098 25.3737V25.2727C80.0712 25.2727 80.3326 25.3333 80.5337 25.4545C80.7549 25.5756 80.9359 25.7372 81.0566 25.9391C81.1772 26.141 81.2576 26.3631 81.2576 26.6256C81.2576 26.9285 81.1772 27.191 80.9962 27.4333C80.8152 27.6756 80.5739 27.8574 80.2723 27.9987C79.9304 28.0997 79.5886 28.1804 79.2065 28.1804Z" fill="#585D65" stroke="#585D65" stroke-width="0.1875" stroke-miterlimit="10"/>
<path d="M82.8661 28.0782C82.7656 28.0782 82.665 28.0378 82.6047 27.9772C82.5444 27.9166 82.5042 27.8156 82.5042 27.6945V23.1512C82.5042 23.0301 82.5444 22.9493 82.6047 22.8685C82.665 22.808 82.7656 22.7676 82.8661 22.7676C82.9667 22.7676 83.0672 22.808 83.1276 22.8685C83.1879 22.9291 83.2281 23.0301 83.2281 23.1512V27.6945C83.2281 27.8156 83.1879 27.8964 83.1276 27.9772C83.0471 28.058 82.9667 28.0782 82.8661 28.0782ZM83.1074 25.756V25.0897H86.9081V25.756H83.1074ZM87.0087 28.0782C86.9081 28.0782 86.8076 28.0378 86.7473 27.9772C86.6668 27.9166 86.6467 27.8156 86.6467 27.6945V23.1512C86.6467 23.0301 86.6869 22.9493 86.7473 22.8685C86.8277 22.808 86.9081 22.7676 87.0087 22.7676C87.1092 22.7676 87.2098 22.808 87.2701 22.8685C87.3305 22.9291 87.3707 23.0301 87.3707 23.1512V27.6945C87.3707 27.8156 87.3305 27.8964 87.2701 27.9772C87.2098 28.058 87.1092 28.0782 87.0087 28.0782Z" fill="#585D65" stroke="#585D65" stroke-width="0.1875" stroke-miterlimit="10"/>
<path d="M91.4328 28.1388C90.93 28.1388 90.4876 28.0176 90.1055 27.7753C89.7235 27.533 89.4017 27.2099 89.1805 26.8061C88.9593 26.4022 88.8386 25.9378 88.8386 25.433C88.8386 24.908 88.9593 24.4638 89.2006 24.0397C89.4419 23.6359 89.7637 23.3128 90.1658 23.0705C90.568 22.8282 91.0306 22.707 91.5333 22.707C92.036 22.707 92.4986 22.8282 92.9008 23.0705C93.303 23.3128 93.6247 23.6359 93.866 24.0397C94.1073 24.4436 94.228 24.908 94.228 25.433L93.9263 25.6753C93.9263 26.1397 93.8258 26.5638 93.6046 26.9272C93.3834 27.2907 93.1019 27.5936 92.7198 27.8157C92.3176 28.0176 91.8953 28.1388 91.4328 28.1388ZM91.5132 27.4522C91.8953 27.4522 92.217 27.3714 92.5187 27.1897C92.8203 27.008 93.0415 26.7657 93.2225 26.4628C93.3834 26.1599 93.4839 25.8166 93.4839 25.433C93.4839 25.0493 93.4035 24.7061 93.2225 24.4032C93.0616 24.1003 92.8203 23.858 92.5187 23.6763C92.217 23.4945 91.8953 23.4138 91.5132 23.4138C91.1512 23.4138 90.8094 23.4945 90.5278 23.6763C90.2262 23.858 90.005 24.1003 89.824 24.4032C89.643 24.7061 89.5626 25.0493 89.5626 25.433C89.5626 25.8166 89.643 26.1599 89.824 26.4628C90.005 26.7657 90.2262 27.008 90.5278 27.1897C90.8094 27.3714 91.1311 27.4522 91.5132 27.4522ZM93.8057 28.0782C93.7051 28.0782 93.6046 28.0378 93.5443 27.9772C93.4638 27.9166 93.4437 27.8157 93.4437 27.7147V26.0589L93.6247 25.2916L94.1878 25.433V27.7147C94.1878 27.8157 94.1475 27.9166 94.0872 27.9772C94.0068 28.058 93.9263 28.0782 93.8057 28.0782Z" fill="#585D65" stroke="#585D65" stroke-width="0.1875" stroke-miterlimit="10"/>
<path d="M95.9977 28.0782C95.8972 28.0782 95.7966 28.0378 95.7363 27.9772C95.676 27.9166 95.6357 27.8156 95.6357 27.6945V23.1512C95.6357 23.0301 95.676 22.9493 95.7363 22.8685C95.7966 22.808 95.8972 22.7676 95.9977 22.7676C96.0982 22.7676 96.1988 22.808 96.2591 22.8685C96.3195 22.9291 96.3597 23.0301 96.3597 23.1512V27.6945C96.3597 27.8156 96.3195 27.8964 96.2591 27.9772C96.1988 28.058 96.1184 28.0782 95.9977 28.0782ZM96.239 25.756V25.0897H100.04V25.756H96.239ZM100.16 28.0782C100.06 28.0782 99.9593 28.0378 99.899 27.9772C99.8185 27.9166 99.7984 27.8156 99.7984 27.6945V23.1512C99.7984 23.0301 99.8386 22.9493 99.899 22.8685C99.9794 22.808 100.06 22.7676 100.16 22.7676C100.261 22.7676 100.361 22.808 100.422 22.8685C100.482 22.9291 100.522 23.0301 100.522 23.1512V27.6945C100.522 27.8156 100.482 27.8964 100.422 27.9772C100.361 28.058 100.261 28.0782 100.16 28.0782Z" fill="#585D65" stroke="#585D65" stroke-width="0.1875" stroke-miterlimit="10"/>
<path d="M102.614 28.0782C102.513 28.0782 102.413 28.0378 102.352 27.9772C102.292 27.9166 102.252 27.8156 102.252 27.6945V23.1512C102.252 23.0301 102.292 22.9493 102.352 22.8685C102.413 22.808 102.513 22.7676 102.614 22.7676C102.714 22.7676 102.815 22.808 102.875 22.8685C102.935 22.9291 102.976 23.0301 102.976 23.1512V27.6945C102.976 27.8156 102.935 27.8964 102.875 27.9772C102.815 28.058 102.734 28.0782 102.614 28.0782ZM102.855 25.756V25.0897H106.656V25.756H102.855ZM106.776 28.0782C106.676 28.0782 106.575 28.0378 106.515 27.9772C106.434 27.9166 106.414 27.8156 106.414 27.6945V23.1512C106.414 23.0301 106.455 22.9493 106.515 22.8685C106.595 22.808 106.676 22.7676 106.776 22.7676C106.877 22.7676 106.977 22.808 107.038 22.8685C107.098 22.9291 107.138 23.0301 107.138 23.1512V27.6945C107.138 27.8156 107.098 27.8964 107.038 27.9772C106.957 28.058 106.877 28.0782 106.776 28.0782Z" fill="#585D65" stroke="#585D65" stroke-width="0.1875" stroke-miterlimit="10"/>
<path d="M111.261 28.1401C110.738 28.1401 110.296 28.0189 109.873 27.7968C109.471 27.5545 109.149 27.2516 108.908 26.8276C108.667 26.4237 108.566 25.9593 108.566 25.4343C108.566 24.9093 108.687 24.4449 108.908 24.041C109.149 23.6372 109.451 23.3141 109.873 23.0718C110.275 22.8295 110.738 22.7285 111.261 22.7285C111.784 22.7285 112.226 22.8497 112.628 23.0718C113.03 23.3141 113.352 23.617 113.573 24.041C113.815 24.4449 113.915 24.9093 113.935 25.4343C113.935 25.9593 113.815 26.4035 113.573 26.8276C113.332 27.2314 113.01 27.5545 112.608 27.7968C112.246 28.0189 111.784 28.1401 111.261 28.1401ZM111.261 27.4535C111.643 27.4535 111.965 27.3727 112.266 27.191C112.568 27.0093 112.789 26.7872 112.97 26.4641C113.131 26.1612 113.211 25.8179 113.211 25.4343C113.211 25.0506 113.131 24.7074 112.97 24.3843C112.809 24.0814 112.568 23.8391 112.266 23.6574C111.965 23.4756 111.643 23.3949 111.261 23.3949C110.879 23.3949 110.557 23.4756 110.255 23.6574C109.954 23.8391 109.733 24.0814 109.552 24.3843C109.391 24.6872 109.29 25.0304 109.29 25.4343C109.29 25.8179 109.371 26.1612 109.552 26.4641C109.712 26.767 109.954 27.0093 110.255 27.191C110.557 27.3727 110.899 27.4535 111.261 27.4535Z" fill="#585D65" stroke="#585D65" stroke-width="0.1875" stroke-miterlimit="10"/>
<path d="M117.012 28.1394C116.63 28.1394 116.288 28.0788 115.987 27.9577C115.685 27.8365 115.444 27.675 115.263 27.4731C115.082 27.2509 115.001 27.0086 115.001 26.7259C115.001 26.4836 115.062 26.2615 115.202 26.0596C115.343 25.8577 115.544 25.6759 115.846 25.5346C116.147 25.3731 116.53 25.2519 116.992 25.1509C117.414 25.05 117.716 24.9288 117.877 24.7875C118.038 24.6259 118.118 24.4442 118.118 24.2019C118.118 23.9798 118.018 23.7981 117.837 23.6365C117.636 23.4952 117.374 23.4144 117.032 23.4144C116.771 23.4144 116.509 23.4548 116.288 23.5557C116.067 23.6567 115.866 23.7779 115.725 23.9596C115.645 24.0404 115.564 24.0807 115.484 24.1009C115.403 24.1211 115.323 24.1009 115.243 24.0807C115.142 24.0202 115.082 23.9394 115.062 23.8586C115.041 23.7577 115.062 23.6769 115.122 23.5961C115.303 23.3538 115.564 23.1317 115.886 22.9904C116.208 22.8288 116.59 22.748 117.012 22.748C117.374 22.748 117.676 22.8086 117.957 22.9096C118.239 23.0307 118.44 23.1923 118.601 23.4144C118.762 23.6365 118.842 23.899 118.842 24.2221C118.842 24.5654 118.721 24.848 118.46 25.1105C118.199 25.373 117.776 25.575 117.173 25.7163C116.63 25.8375 116.248 25.9788 116.047 26.1404C115.846 26.3019 115.745 26.4836 115.745 26.7259C115.745 26.9682 115.846 27.1702 116.047 27.2913C116.248 27.4125 116.57 27.4731 116.992 27.4731C117.314 27.4731 117.595 27.4327 117.857 27.3519C118.118 27.2711 118.319 27.1298 118.48 26.9481C118.541 26.8673 118.621 26.8269 118.721 26.8067C118.802 26.7865 118.902 26.8067 118.983 26.8875C119.063 26.9682 119.104 27.049 119.124 27.1298C119.124 27.2105 119.104 27.3115 119.023 27.3721C118.802 27.6144 118.5 27.7961 118.138 27.9375C117.776 28.0586 117.394 28.1394 117.012 28.1394Z" fill="#585D65" stroke="#585D65" stroke-width="0.1875" stroke-miterlimit="10"/>
<path d="M122.804 28.1401C122.281 28.1401 121.839 28.0189 121.416 27.7968C121.014 27.5545 120.692 27.2516 120.451 26.8276C120.21 26.4237 120.109 25.9593 120.109 25.4343C120.109 24.9093 120.23 24.4449 120.451 24.041C120.692 23.6372 120.994 23.3141 121.416 23.0718C121.818 22.8295 122.281 22.7285 122.804 22.7285C123.327 22.7285 123.769 22.8497 124.171 23.0718C124.573 23.3141 124.895 23.617 125.116 24.041C125.358 24.4449 125.458 24.9093 125.478 25.4343C125.478 25.9593 125.358 26.4035 125.116 26.8276C124.875 27.2314 124.553 27.5545 124.151 27.7968C123.769 28.0189 123.307 28.1401 122.804 28.1401ZM122.804 27.4535C123.186 27.4535 123.508 27.3727 123.809 27.191C124.111 27.0093 124.332 26.7872 124.513 26.4641C124.674 26.1612 124.754 25.8179 124.754 25.4343C124.754 25.0506 124.674 24.7074 124.513 24.3843C124.352 24.0814 124.111 23.8391 123.809 23.6574C123.508 23.4756 123.186 23.3949 122.804 23.3949C122.422 23.3949 122.1 23.4756 121.798 23.6574C121.497 23.8391 121.275 24.0814 121.095 24.3843C120.934 24.6872 120.833 25.0304 120.833 25.4343C120.833 25.8179 120.914 26.1612 121.095 26.4641C121.255 26.767 121.497 27.0093 121.798 27.191C122.08 27.3727 122.422 27.4535 122.804 27.4535Z" fill="#585D65" stroke="#585D65" stroke-width="0.1875" stroke-miterlimit="10"/>
<path d="M56.4225 37.4673C56.322 37.4673 56.2214 37.4269 56.1611 37.3663C56.0807 37.2855 56.0605 37.2048 56.0605 37.1038V30.299C56.0605 30.198 56.1008 30.0971 56.1611 30.0365C56.2415 29.9557 56.322 29.9355 56.4225 29.9355H58.353C58.8357 29.9355 59.258 30.0365 59.6199 30.2586C59.9819 30.4605 60.2634 30.7634 60.4846 31.1269C60.6857 31.4903 60.7863 31.9144 60.7863 32.399C60.7863 32.8634 60.6857 33.2875 60.4846 33.6509C60.2835 34.0144 60.002 34.2971 59.6199 34.5192C59.258 34.7211 58.8357 34.8423 58.353 34.8423H56.8046V37.1442C56.8046 37.2452 56.7644 37.3461 56.7041 37.4067C56.6236 37.4269 56.5432 37.4673 56.4225 37.4673ZM56.8046 34.075H58.353C58.6748 34.075 58.9764 33.9942 59.2379 33.8528C59.4993 33.7115 59.7004 33.5096 59.8411 33.2471C59.9819 32.9846 60.0623 32.7019 60.0623 32.3586C60.0623 32.0154 59.9819 31.7125 59.8411 31.45C59.7004 31.1875 59.4993 30.9855 59.2379 30.8442C58.9764 30.7029 58.6949 30.6221 58.353 30.6221H56.8046V34.075Z" fill="#585D65" stroke="#585D65" stroke-width="0.1875" stroke-miterlimit="10"/>
<path d="M64.0838 37.5287C63.561 37.5287 63.1186 37.4076 62.6963 37.1855C62.2941 36.9431 61.9723 36.6403 61.731 36.2162C61.4897 35.8124 61.3892 35.348 61.3892 34.823C61.3892 34.298 61.5098 33.8335 61.731 33.4297C61.9723 33.0258 62.274 32.7028 62.6963 32.4605C63.0985 32.2182 63.561 32.1172 64.0838 32.1172C64.6067 32.1172 65.0491 32.2383 65.4513 32.4605C65.8535 32.7028 66.1752 33.0056 66.3964 33.4297C66.6378 33.8335 66.7383 34.298 66.7584 34.823C66.7584 35.348 66.6378 35.7922 66.3964 36.2162C66.1551 36.6201 65.8334 36.9431 65.4312 37.1855C65.0491 37.4076 64.5866 37.5287 64.0838 37.5287ZM64.0838 36.8422C64.4659 36.8422 64.7877 36.7614 65.0893 36.5797C65.391 36.398 65.6122 36.1758 65.7932 35.8528C65.954 35.5499 66.0345 35.2066 66.0345 34.823C66.0345 34.4393 65.954 34.096 65.7932 33.773C65.6323 33.4701 65.391 33.2278 65.0893 33.046C64.7877 32.8643 64.4659 32.7835 64.0838 32.7835C63.7018 32.7835 63.38 32.8643 63.0784 33.046C62.7767 33.2278 62.5555 33.4701 62.3745 33.773C62.2137 34.0758 62.1131 34.4191 62.1131 34.823C62.1131 35.2268 62.1935 35.5499 62.3745 35.8528C62.5354 36.1556 62.7767 36.398 63.0784 36.5797C63.3599 36.7614 63.7018 36.8422 64.0838 36.8422Z" fill="#585D65" stroke="#585D65" stroke-width="0.1875" stroke-miterlimit="10"/>
<path d="M70.5393 37.5281C70.0365 37.5281 69.574 37.4069 69.192 37.1848C68.7898 36.9627 68.4881 36.6396 68.2669 36.2358C68.0457 35.8319 67.925 35.3675 67.925 34.8425C67.925 34.3175 68.0457 33.8531 68.2669 33.429C68.5082 33.0252 68.8099 32.7021 69.2322 32.48C69.6344 32.2579 70.0969 32.1367 70.6197 32.1367C71.1426 32.1367 71.6051 32.2579 72.0073 32.48C72.4095 32.7021 72.7312 33.0252 72.9524 33.429C73.1736 33.8329 73.2943 34.2973 73.3144 34.8425L72.872 35.0848C72.872 35.5694 72.7715 35.9935 72.5704 36.3569C72.3693 36.7204 72.0877 37.0233 71.7459 37.2252C71.3839 37.4069 70.9817 37.5281 70.5393 37.5281ZM70.6398 39.5675C70.1371 39.5675 69.6746 39.4665 69.2925 39.2848C68.9104 39.1031 68.5887 38.8406 68.3272 38.4973C68.2468 38.4165 68.2267 38.3358 68.2267 38.255C68.2267 38.1742 68.287 38.0935 68.3675 38.0329C68.4479 37.9723 68.5485 37.9521 68.649 37.9723C68.7495 37.9925 68.83 38.0329 68.8903 38.1136C69.0713 38.356 69.3126 38.5377 69.6143 38.679C69.9159 38.8204 70.2376 38.9011 70.6398 38.9011C71.0018 38.9011 71.3236 38.8204 71.6051 38.6386C71.8866 38.4569 72.1279 38.2146 72.2888 37.9117C72.4497 37.5886 72.5502 37.2252 72.5502 36.8011V35.3271L72.8318 34.7617L73.2943 34.8425V36.8213C73.2943 37.3463 73.1736 37.8108 72.9524 38.2348C72.7111 38.6588 72.4095 38.9819 72.0073 39.2242C71.6051 39.4463 71.1426 39.5675 70.6398 39.5675ZM70.6197 36.8415C71.0018 36.8415 71.3437 36.7608 71.6252 36.579C71.9268 36.4175 72.1481 36.1752 72.3089 35.8723C72.4698 35.5694 72.5502 35.2262 72.5502 34.8223C72.5502 34.4185 72.4698 34.0752 72.3089 33.7723C72.1481 33.4694 71.9067 33.2271 71.6252 33.0454C71.3236 32.8838 71.0018 32.7829 70.6197 32.7829C70.2376 32.7829 69.8958 32.8636 69.6143 33.0454C69.3126 33.2069 69.0914 33.4492 68.9104 33.7723C68.7495 34.0752 68.6691 34.4387 68.6691 34.8223C68.6691 35.206 68.7495 35.5694 68.9104 35.8723C69.0713 36.1752 69.3126 36.4175 69.6143 36.579C69.8958 36.7608 70.2376 36.8415 70.6197 36.8415Z" fill="#585D65" stroke="#585D65" stroke-width="0.1875" stroke-miterlimit="10"/>
<path d="M77.0346 37.5294C76.5721 37.5294 76.1699 37.4284 75.808 37.2467C75.446 37.0649 75.1644 36.7822 74.9633 36.3986C74.7623 36.0351 74.6416 35.5909 74.6416 35.0457V32.5217C74.6416 32.4207 74.6818 32.3399 74.7421 32.2592C74.8226 32.1784 74.903 32.1582 75.0036 32.1582C75.1041 32.1582 75.2047 32.1986 75.265 32.2592C75.3454 32.3399 75.3655 32.4207 75.3655 32.5217V35.0457C75.3655 35.4495 75.446 35.7726 75.5868 36.0351C75.7476 36.2976 75.9487 36.4794 76.2101 36.6207C76.4716 36.7419 76.7732 36.8226 77.095 36.8226C77.4167 36.8226 77.6983 36.7621 77.9396 36.6409C78.201 36.5197 78.4021 36.3582 78.5429 36.1361C78.6836 35.914 78.7641 35.6717 78.7641 35.4092H79.2869C79.2668 35.813 79.1663 36.1765 78.945 36.4995C78.7439 36.8226 78.4624 37.0649 78.1205 37.2467C77.839 37.4284 77.4569 37.5294 77.0346 37.5294ZM79.1662 37.4688C79.0657 37.4688 78.9652 37.4284 78.9048 37.3678C78.8445 37.3072 78.8043 37.2063 78.8043 37.0851V32.5217C78.8043 32.4207 78.8445 32.3197 78.9048 32.2592C78.9652 32.1986 79.0657 32.1582 79.1662 32.1582C79.2668 32.1582 79.3673 32.1986 79.4277 32.2592C79.5081 32.3197 79.5282 32.4207 79.5282 32.5217V37.0851C79.5282 37.2063 79.488 37.287 79.4277 37.3678C79.3673 37.4284 79.2668 37.4688 79.1662 37.4688Z" fill="#585D65" stroke="#585D65" stroke-width="0.1875" stroke-miterlimit="10"/>
<path d="M81.6599 37.4681C81.5393 37.4681 81.4588 37.4278 81.3784 37.3672C81.2979 37.3066 81.2778 37.2057 81.2778 37.1047V32.5412C81.2778 32.4403 81.3181 32.3393 81.3784 32.2787C81.4387 32.2181 81.5393 32.1778 81.6599 32.1778C81.7605 32.1778 81.861 32.2181 81.9213 32.2787C81.9817 32.3393 82.0219 32.4403 82.0219 32.5412V37.1047C82.0219 37.2057 81.9817 37.3066 81.9213 37.3672C81.861 37.4278 81.7605 37.4681 81.6599 37.4681ZM85.0383 37.4681C84.9378 37.4681 84.8372 37.4278 84.7769 37.3672C84.6965 37.3066 84.6763 37.2057 84.6763 37.1047V34.3182C84.6763 33.8537 84.5557 33.4903 84.3144 33.2278C84.0731 32.9653 83.7714 32.8239 83.3893 32.8239C82.9871 32.8239 82.6654 32.9451 82.404 33.2076C82.1425 33.4701 82.0219 33.8133 82.0219 34.2374H81.499C81.5191 33.8335 81.5996 33.4499 81.7806 33.147C81.9414 32.8239 82.1828 32.5816 82.4844 32.3999C82.786 32.2182 83.1078 32.1374 83.4899 32.1374C83.872 32.1374 84.2138 32.2182 84.4954 32.3999C84.797 32.5816 85.0182 32.8441 85.1791 33.1672C85.34 33.4903 85.4204 33.8941 85.4204 34.3383V37.1249C85.4204 37.2258 85.3802 37.3268 85.3198 37.3874C85.2595 37.448 85.159 37.4681 85.0383 37.4681ZM88.4167 37.4681C88.3162 37.4681 88.2156 37.4278 88.1553 37.3672C88.0748 37.3066 88.0547 37.2057 88.0547 37.1047V34.3182C88.0547 33.8537 87.9341 33.4903 87.6928 33.2278C87.4515 32.9653 87.1498 32.8239 86.7677 32.8239C86.3656 32.8239 86.0438 32.9653 85.7824 33.2278C85.5209 33.4903 85.4003 33.8537 85.4204 34.298H84.7568C84.7568 33.8739 84.8573 33.4903 85.0383 33.147C85.2193 32.8239 85.4606 32.5614 85.7824 32.3797C86.1041 32.198 86.446 32.1172 86.8482 32.1172C87.2302 32.1172 87.5721 32.198 87.8536 32.3797C88.1553 32.5614 88.3765 32.8239 88.5374 33.147C88.6982 33.4701 88.7787 33.8739 88.7787 34.3182V37.1047C88.7787 37.2057 88.7385 37.3066 88.6781 37.3672C88.6178 37.4278 88.5173 37.4681 88.4167 37.4681Z" fill="#585D65" stroke="#585D65" stroke-width="0.1875" stroke-miterlimit="10"/>
<path d="M92.8206 37.5294C92.2977 37.5294 91.8352 37.4082 91.433 37.1861C91.0308 36.964 90.7091 36.6409 90.4879 36.2371C90.2667 35.8332 90.146 35.3688 90.146 34.8438C90.146 34.3188 90.2465 33.8543 90.4677 33.4505C90.6889 33.0467 90.9906 32.7236 91.3526 32.5015C91.7346 32.2592 92.1771 32.1582 92.6597 32.1582C93.1423 32.1582 93.5847 32.2794 93.9467 32.5015C94.3087 32.7236 94.5902 33.0265 94.7913 33.4303C94.9924 33.8342 95.0929 34.2784 95.0929 34.7832C95.0929 34.8842 95.0527 34.9649 94.9924 35.0255C94.9321 35.0861 94.8516 35.1265 94.7511 35.1265H90.6487V34.4399H94.8315L94.4092 34.7428C94.4092 34.3592 94.3489 34.0361 94.2081 33.7332C94.0674 33.4303 93.8663 33.2082 93.6048 33.0265C93.3434 32.8649 93.0418 32.7842 92.6798 32.7842C92.3178 32.7842 91.9961 32.8649 91.7145 33.0467C91.433 33.2284 91.2319 33.4707 91.071 33.7736C90.9102 34.0765 90.8498 34.4399 90.8498 34.8236C90.8498 35.2072 90.9303 35.5707 91.1113 35.8736C91.2721 36.1765 91.5135 36.4188 91.8151 36.6005C92.1167 36.7822 92.4586 36.863 92.8407 36.863C93.082 36.863 93.3032 36.8226 93.5445 36.7419C93.7858 36.6611 93.9668 36.5601 94.1076 36.439C94.188 36.3784 94.2685 36.3582 94.3489 36.338C94.4293 36.338 94.5098 36.3582 94.5902 36.4188C94.6706 36.4995 94.7109 36.5803 94.7109 36.6611C94.7109 36.7419 94.6706 36.8226 94.5902 36.9034C94.369 37.0851 94.1076 37.2265 93.7858 37.3476C93.4238 37.4688 93.1222 37.5294 92.8206 37.5294Z" fill="#585D65" stroke="#585D65" stroke-width="0.1875" stroke-miterlimit="10"/>
<path d="M98.3105 32.1777C98.3909 32.1777 98.4513 32.1979 98.5317 32.2383C98.592 32.2787 98.6524 32.3393 98.6926 32.4402L100.784 37.0239C100.824 37.1047 100.824 37.2056 100.804 37.2864C100.764 37.3672 100.704 37.4277 100.623 37.4681C100.523 37.5085 100.422 37.5287 100.342 37.4883C100.261 37.4681 100.181 37.3874 100.14 37.3066L98.1496 32.8441H98.592L96.561 37.3066C96.5208 37.4075 96.4403 37.4681 96.3599 37.4883C96.2593 37.5085 96.1789 37.5085 96.0783 37.4681C95.9979 37.4277 95.9175 37.3672 95.8974 37.2864C95.8571 37.2056 95.8571 37.1248 95.8974 37.0239L98.029 32.4604C98.0491 32.2585 98.1697 32.1777 98.3105 32.1777Z" fill="#585D65" stroke="#585D65" stroke-width="0.1875" stroke-miterlimit="10"/>
<path d="M104.263 37.5684C103.82 37.5684 103.438 37.4876 103.096 37.3261C102.754 37.1646 102.493 36.9223 102.312 36.6396C102.131 36.3367 102.031 35.9934 102.031 35.6098V32.5607C102.031 32.4598 102.071 32.3588 102.151 32.2982C102.232 32.2377 102.312 32.1973 102.413 32.1973C102.513 32.1973 102.594 32.2377 102.674 32.2982C102.754 32.379 102.775 32.4598 102.775 32.5607V33.9338H104.343C104.765 33.9338 105.127 34.0146 105.449 34.1559C105.771 34.2973 106.012 34.5194 106.193 34.7819C106.374 35.0444 106.455 35.3675 106.455 35.7309C106.455 36.0944 106.354 36.3973 106.173 36.6799C105.992 36.9626 105.731 37.1848 105.409 37.3463C105.087 37.5078 104.705 37.5684 104.263 37.5684ZM104.263 36.8819C104.685 36.8819 105.027 36.7809 105.308 36.5992C105.59 36.3973 105.731 36.1146 105.731 35.7309C105.731 35.3675 105.61 35.0848 105.369 34.8828C105.127 34.6809 104.786 34.58 104.363 34.58H102.795V35.5896C102.795 35.8319 102.855 36.054 102.976 36.2559C103.096 36.4578 103.277 36.5992 103.499 36.7203C103.7 36.8213 103.961 36.8819 104.263 36.8819Z" fill="#585D65" stroke="#585D65" stroke-width="0.1875" stroke-miterlimit="10"/>
<path d="M110.054 37.5294C109.552 37.5294 109.089 37.4082 108.707 37.1659C108.305 36.9236 108.003 36.6005 107.762 36.1967C107.541 35.7928 107.42 35.3284 107.42 34.8236C107.42 34.2986 107.52 33.8544 107.742 33.4303C107.963 33.0265 108.265 32.7034 108.647 32.4611C109.029 32.2188 109.471 32.0977 109.954 32.0977C110.356 32.0977 110.718 32.1784 111.04 32.34C111.361 32.5015 111.663 32.7236 111.904 33.0467C111.985 33.1275 112.005 33.2082 111.985 33.289C111.965 33.3698 111.904 33.4505 111.824 33.5111C111.743 33.5717 111.683 33.5717 111.583 33.5717C111.502 33.5515 111.422 33.5111 111.361 33.4303C110.979 33.0063 110.517 32.7842 109.954 32.7842C109.592 32.7842 109.27 32.865 109.009 33.0467C108.727 33.2284 108.526 33.4505 108.365 33.7736C108.204 34.0765 108.144 34.4198 108.144 34.8236C108.144 35.2073 108.224 35.5505 108.385 35.8534C108.546 36.1563 108.767 36.3986 109.069 36.5803C109.35 36.7621 109.692 36.8428 110.054 36.8428C110.296 36.8428 110.537 36.8025 110.738 36.7419C110.939 36.6813 111.14 36.5601 111.301 36.4188C111.382 36.3582 111.462 36.3178 111.542 36.3178C111.623 36.3178 111.703 36.338 111.784 36.3986C111.864 36.4794 111.904 36.5602 111.904 36.6409C111.904 36.7217 111.884 36.8025 111.804 36.8832C111.341 37.3073 110.758 37.5294 110.054 37.5294Z" fill="#585D65" stroke="#585D65" stroke-width="0.1875" stroke-miterlimit="10"/>
<path d="M113.815 37.4681C113.694 37.4681 113.614 37.4278 113.533 37.3672C113.453 37.3066 113.433 37.2057 113.433 37.1047V32.5412C113.433 32.4403 113.473 32.3393 113.533 32.2787C113.594 32.2181 113.694 32.1778 113.815 32.1778C113.915 32.1778 114.016 32.2181 114.076 32.2787C114.137 32.3393 114.177 32.4403 114.177 32.5412V37.1047C114.177 37.2057 114.137 37.3066 114.076 37.3672C114.016 37.4278 113.936 37.4681 113.815 37.4681ZM117.213 37.4681C117.113 37.4681 117.012 37.4278 116.952 37.3672C116.872 37.3066 116.851 37.2057 116.851 37.1047V34.3182C116.851 33.8537 116.731 33.4903 116.489 33.2278C116.248 32.9653 115.947 32.8239 115.564 32.8239C115.162 32.8239 114.841 32.9451 114.579 33.2076C114.318 33.4701 114.197 33.8133 114.197 34.2374H113.674C113.694 33.8335 113.775 33.4499 113.956 33.147C114.117 32.8239 114.358 32.5816 114.66 32.3999C114.961 32.2182 115.283 32.1374 115.665 32.1374C116.047 32.1374 116.389 32.2182 116.67 32.3999C116.972 32.5816 117.193 32.8441 117.354 33.1672C117.515 33.4903 117.596 33.8941 117.596 34.3383V37.1249C117.596 37.2258 117.555 37.3268 117.495 37.3874C117.435 37.448 117.314 37.4681 117.213 37.4681ZM120.572 37.4681C120.471 37.4681 120.371 37.4278 120.31 37.3672C120.23 37.3066 120.21 37.2057 120.21 37.1047V34.3182C120.21 33.8537 120.089 33.4903 119.848 33.2278C119.606 32.9653 119.305 32.8239 118.923 32.8239C118.521 32.8239 118.199 32.9653 117.937 33.2278C117.676 33.4903 117.555 33.8537 117.575 34.298H116.912C116.912 33.8739 117.012 33.4903 117.193 33.147C117.374 32.8239 117.616 32.5614 117.937 32.3797C118.259 32.198 118.601 32.1172 119.003 32.1172C119.385 32.1172 119.727 32.198 120.009 32.3797C120.31 32.5614 120.532 32.8239 120.692 33.147C120.853 33.4701 120.934 33.8739 120.934 34.3182V37.1047C120.934 37.2057 120.893 37.3066 120.833 37.3672C120.773 37.4278 120.692 37.4681 120.572 37.4681Z" fill="#585D65" stroke="#585D65" stroke-width="0.1875" stroke-miterlimit="10"/>
<path d="M122.965 37.4688C122.844 37.4688 122.764 37.4284 122.683 37.3678C122.603 37.3072 122.583 37.2063 122.583 37.0851V32.5217C122.583 32.4207 122.623 32.3197 122.703 32.2592C122.784 32.1986 122.864 32.1582 122.965 32.1582C123.065 32.1582 123.166 32.1986 123.226 32.2592C123.286 32.3197 123.327 32.4207 123.327 32.5418V34.3794H125.358V34.5207C125.699 34.5207 125.981 34.5813 126.242 34.7024C126.504 34.8236 126.705 34.9851 126.846 35.2072C126.986 35.4294 127.067 35.6717 127.067 35.9544C127.067 36.2572 126.986 36.5197 126.846 36.7419C126.705 36.964 126.504 37.1457 126.242 37.2669C125.981 37.388 125.679 37.4688 125.358 37.4688H122.965ZM124.412 34.8034V34.3794H125.378C125.599 34.3794 125.78 34.2986 125.921 34.1572C126.061 34.0159 126.142 33.814 126.142 33.5919C126.142 33.3899 126.061 33.2082 125.921 33.0669C125.76 32.9255 125.579 32.8447 125.338 32.8447H122.985V32.1582H125.338C125.639 32.1582 125.901 32.2188 126.122 32.3399C126.343 32.4611 126.524 32.6226 126.665 32.8245C126.806 33.0265 126.866 33.2688 126.866 33.5515C126.866 33.9755 126.725 34.2784 126.444 34.5005C126.162 34.7024 125.8 34.8034 125.378 34.8034H124.412ZM123.327 36.7822H125.358C125.639 36.7822 125.88 36.7015 126.082 36.5601C126.263 36.4188 126.363 36.1967 126.363 35.914C126.363 35.6313 126.263 35.4092 126.082 35.2476C125.901 35.0861 125.659 35.0255 125.358 35.0255H123.327V36.7822Z" fill="#585D65" stroke="#585D65" stroke-width="0.1875" stroke-miterlimit="10"/>
<path d="M130.667 37.5294C130.164 37.5294 129.722 37.4082 129.34 37.1659C128.958 36.9236 128.636 36.6005 128.415 36.1967C128.193 35.7928 128.073 35.3284 128.073 34.8236C128.073 34.2986 128.193 33.8544 128.435 33.4303C128.676 33.0265 128.998 32.7034 129.4 32.4611C129.802 32.2188 130.265 32.0977 130.767 32.0977C131.27 32.0977 131.733 32.2188 132.135 32.4611C132.537 32.7034 132.859 33.0265 133.1 33.4303C133.341 33.8342 133.462 34.2986 133.462 34.8236L133.16 35.0659C133.16 35.5303 133.06 35.9544 132.839 36.3178C132.618 36.6813 132.336 36.9842 131.954 37.2063C131.572 37.4082 131.15 37.5294 130.667 37.5294ZM130.747 36.8428C131.129 36.8428 131.451 36.7621 131.753 36.5803C132.054 36.3986 132.276 36.1563 132.457 35.8534C132.618 35.5505 132.718 35.2073 132.718 34.8236C132.718 34.44 132.638 34.0967 132.457 33.7938C132.276 33.4909 132.054 33.2486 131.753 33.0669C131.451 32.8852 131.129 32.8044 130.747 32.8044C130.385 32.8044 130.043 32.8852 129.762 33.0669C129.46 33.2486 129.239 33.4909 129.058 33.7938C128.877 34.0967 128.797 34.44 128.797 34.8236C128.797 35.2073 128.877 35.5505 129.058 35.8534C129.239 36.1563 129.46 36.3986 129.762 36.5803C130.064 36.7621 130.385 36.8428 130.747 36.8428ZM133.06 37.4688C132.959 37.4688 132.859 37.4284 132.798 37.3678C132.718 37.3073 132.698 37.2063 132.698 37.1053V35.4496L132.879 34.6823L133.442 34.8236V37.1053C133.442 37.2063 133.402 37.3073 133.341 37.3678C133.261 37.4284 133.181 37.4688 133.06 37.4688Z" fill="#585D65" stroke="#585D65" stroke-width="0.1875" stroke-miterlimit="10"/>
</svg>
