<svg width="20" height="20" viewBox="0 0 20 20" fill="none" xmlns="http://www.w3.org/2000/svg">
<path d="M4.72452 8.2623L7.27631 4.80976C8.92577 2.57805 9.75051 1.4622 10.52 1.698C11.2894 1.93381 11.2894 3.3024 11.2894 6.03959V6.29767C11.2894 7.28492 11.2894 7.77854 11.6049 8.08817L11.6216 8.10421C11.9438 8.4073 12.4576 8.40729 13.4851 8.40729C15.3342 8.40729 16.2587 8.4073 16.5712 8.96808C16.5763 8.97737 16.5814 8.98673 16.5863 8.99616C16.8812 9.56563 16.3459 10.2899 15.2753 11.7384L12.7235 15.1909C11.074 17.4226 10.2493 18.5385 9.47978 18.3026C8.71032 18.0668 8.71034 16.6982 8.71038 13.961L8.71038 13.703C8.7104 12.7158 8.7104 12.2221 8.39495 11.9125L8.37826 11.8965C8.056 11.5934 7.54224 11.5934 6.51471 11.5934C4.66565 11.5934 3.74112 11.5934 3.42867 11.0326C3.42349 11.0233 3.41846 11.014 3.41358 11.0045C3.11862 10.4351 3.65392 9.71081 4.72452 8.2623Z" fill="#F4F5F5"/>
</svg>
