<svg width="20" height="10" viewBox="0 0 20 10" fill="none" xmlns="http://www.w3.org/2000/svg">
<path d="M1.68188 0.687677C1.50938 0.311087 1.06427 0.145633 0.687677 0.318125C0.311087 0.490616 0.145633 0.935734 0.318125 1.31232L1.68188 0.687677ZM13.2285 6.32943L12.9693 5.62564L13.2285 6.32943ZM7.38728 6.75763C7.62377 6.41756 7.5398 5.95017 7.19973 5.71368C6.85966 5.4772 6.39227 5.56117 6.15578 5.90124L7.38728 6.75763ZM4.88425 7.7297C4.64776 8.06977 4.73173 8.53716 5.0718 8.77364C5.41187 9.01013 5.87926 8.92616 6.11575 8.58609L4.88425 7.7297ZM19.6819 1.31232C19.8544 0.935734 19.6889 0.490616 19.3123 0.318124C18.9357 0.145633 18.4906 0.311087 18.3181 0.687677L19.6819 1.31232ZM16.3 4.47692L15.8051 3.91339V3.91339L16.3 4.47692ZM17.1376 6.28773C17.44 6.57073 17.9146 6.55496 18.1977 6.2525C18.4807 5.95004 18.4649 5.47543 18.1624 5.19242L17.1376 6.28773ZM9.25 9C9.25 9.41421 9.58579 9.75 10 9.75C10.4142 9.75 10.75 9.41421 10.75 9H9.25ZM13.8843 8.58609C14.1207 8.92616 14.5881 9.01013 14.9282 8.77364C15.2683 8.53716 15.3522 8.06977 15.1157 7.7297L13.8843 8.58609ZM4.21242 5.02457C4.51488 4.74156 4.53066 4.26695 4.24765 3.96449C3.96465 3.66203 3.49004 3.64626 3.18758 3.92926L4.21242 5.02457ZM1.83758 5.19242C1.53512 5.47543 1.51934 5.95004 1.80235 6.2525C2.08535 6.55496 2.55996 6.57073 2.86242 6.28773L1.83758 5.19242ZM10 6.14474C7.10749 6.14474 5.03807 4.79775 3.66985 3.41906C2.98483 2.72881 2.48294 2.03694 2.15312 1.51849C1.9886 1.25987 1.86801 1.04616 1.7898 0.899812C1.75072 0.826688 1.72232 0.770544 1.70438 0.734205C1.69541 0.716041 1.68907 0.702844 1.68532 0.694966C1.68345 0.691028 1.68223 0.688422 1.68166 0.687191C1.68137 0.686576 1.68125 0.686306 1.68128 0.686385C1.6813 0.686424 1.68136 0.686551 1.68146 0.686766C1.68151 0.686873 1.68161 0.687102 1.68164 0.687155C1.68175 0.687405 1.68188 0.687677 1 1C0.318125 1.31232 0.31827 1.31264 0.318426 1.31298C0.318491 1.31312 0.318658 1.31349 0.31879 1.31377C0.319054 1.31435 0.31936 1.31501 0.319708 1.31576C0.320405 1.31727 0.32127 1.31914 0.322305 1.32135C0.324374 1.32579 0.327122 1.33164 0.330551 1.33885C0.337409 1.35328 0.346997 1.37319 0.359343 1.3982C0.384031 1.44821 0.419784 1.51871 0.466842 1.60677C0.560901 1.78278 0.700465 2.0296 0.887508 2.32362C1.26081 2.91043 1.82767 3.69224 2.60515 4.47567C4.16193 6.04436 6.59251 7.64474 10 7.64474V6.14474ZM12.9693 5.62564C12.1007 5.94551 11.1143 6.14474 10 6.14474V7.64474C11.2976 7.64474 12.4593 7.41196 13.4877 7.03322L12.9693 5.62564ZM6.15578 5.90124L4.88425 7.7297L6.11575 8.58609L7.38728 6.75763L6.15578 5.90124ZM19 1C18.3181 0.687677 18.3182 0.687519 18.3183 0.687368C18.3183 0.687327 18.3183 0.687183 18.3184 0.687101C18.3185 0.686937 18.3185 0.686801 18.3186 0.686692C18.3187 0.686475 18.3187 0.686368 18.3187 0.686371C18.3187 0.686377 18.3185 0.686821 18.3181 0.687695C18.3173 0.689444 18.3157 0.692914 18.3132 0.698041C18.3083 0.708297 18.3002 0.725176 18.2887 0.748179C18.2658 0.794201 18.2297 0.864637 18.1801 0.955513C18.081 1.13742 17.9285 1.40028 17.7205 1.71257C17.3034 2.33897 16.6699 3.15386 15.8051 3.91339L16.7949 5.04044C17.7828 4.17283 18.4994 3.24926 18.969 2.54399C19.2045 2.19045 19.3796 1.88916 19.4972 1.67339C19.556 1.56543 19.6006 1.47864 19.6313 1.41714C19.6466 1.38639 19.6584 1.36194 19.6669 1.3443C19.6711 1.33548 19.6744 1.32837 19.6769 1.32302C19.6782 1.32034 19.6792 1.31811 19.68 1.31632C19.6804 1.31543 19.6808 1.31465 19.6811 1.31398C19.6813 1.31365 19.6814 1.31334 19.6815 1.31307C19.6816 1.31293 19.6817 1.31274 19.6817 1.31267C19.6818 1.3125 19.6819 1.31232 19 1ZM15.8051 3.91339C15.0391 4.58611 14.0979 5.21 12.9693 5.62564L13.4877 7.03322C14.8206 6.54233 15.9178 5.81075 16.7949 5.04044L15.8051 3.91339ZM15.7876 5.02457L17.1376 6.28773L18.1624 5.19242L16.8124 3.92926L15.7876 5.02457ZM9.25 6.89474V9H10.75V6.89474H9.25ZM12.6127 6.75763L13.8843 8.58609L15.1157 7.7297L13.8442 5.90123L12.6127 6.75763ZM3.18758 3.92926L1.83758 5.19242L2.86242 6.28773L4.21242 5.02457L3.18758 3.92926Z" fill="#585D65"/>
</svg>
