<svg width="20" height="20" viewBox="0 0 20 20" fill="none" xmlns="http://www.w3.org/2000/svg">
<path fill-rule="evenodd" clip-rule="evenodd" d="M9.95153 1.04102L11.2493 1.04102C11.5945 1.04102 11.8743 1.32084 11.8743 1.66602C11.8743 2.01119 11.5945 2.29102 11.2493 2.29102H9.99935C8.01749 2.29102 6.59398 2.29234 5.51066 2.43799C4.44533 2.58122 3.80306 2.85363 3.32835 3.32835C2.85363 3.80306 2.58122 4.44533 2.43799 5.51066C2.29234 6.59398 2.29102 8.01749 2.29102 9.99935C2.29102 11.9812 2.29234 13.4047 2.43799 14.488C2.58122 15.5534 2.85363 16.1956 3.32835 16.6704C3.80306 17.1451 4.44533 17.4175 5.51066 17.5607C6.59398 17.7064 8.01749 17.7077 9.99935 17.7077C11.9812 17.7077 13.4047 17.7064 14.488 17.5607C15.5534 17.4175 16.1956 17.1451 16.6704 16.6704C17.1451 16.1956 17.4175 15.5534 17.5607 14.488C17.7064 13.4047 17.7077 11.9812 17.7077 9.99935V8.74935C17.7077 8.40417 17.9875 8.12435 18.3327 8.12435C18.6779 8.12435 18.9577 8.40417 18.9577 8.74935V10.0472C18.9577 11.9708 18.9577 13.4784 18.7996 14.6546C18.6377 15.8585 18.2999 16.8086 17.5542 17.5542C16.8086 18.2999 15.8585 18.6377 14.6546 18.7996C13.4784 18.9577 11.9708 18.9577 10.0472 18.9577H9.95154C8.02788 18.9577 6.52034 18.9577 5.3441 18.7996C4.14016 18.6377 3.19014 18.2999 2.44446 17.5542C1.69879 16.8086 1.361 15.8585 1.19914 14.6546C1.041 13.4784 1.04101 11.9708 1.04102 10.0472V9.95153C1.04101 8.02787 1.041 6.52034 1.19914 5.3441C1.361 4.14016 1.69879 3.19014 2.44446 2.44446C3.19014 1.69879 4.14016 1.361 5.3441 1.19914C6.52034 1.041 8.02787 1.04101 9.95153 1.04102ZM13.9748 1.89594C15.1147 0.75604 16.9628 0.75604 18.1028 1.89594C19.2427 3.03585 19.2427 4.884 18.1028 6.02391L12.5627 11.564C12.2533 11.8734 12.0595 12.0673 11.8432 12.236C11.5884 12.4347 11.3128 12.605 11.0211 12.744C10.7735 12.862 10.5135 12.9487 10.0983 13.087L7.6779 13.8938C7.23103 14.0428 6.73835 13.9265 6.40528 13.5934C6.0722 13.2603 5.95589 12.7677 6.10485 12.3208L6.91166 9.90037C7.05001 9.48523 7.13667 9.22518 7.25468 8.97756C7.39367 8.68591 7.56402 8.41028 7.76272 8.15553C7.93142 7.93924 8.12527 7.74542 8.43472 7.43601L13.9748 1.89594ZM17.2189 2.77983C16.5671 2.12808 15.5104 2.12808 14.8587 2.77983L14.5448 3.09368C14.5637 3.17356 14.5902 3.26874 14.627 3.3749C14.7465 3.71912 14.9725 4.17244 15.3994 4.59934C15.8263 5.02624 16.2796 5.25224 16.6238 5.37166C16.73 5.40849 16.8251 5.43495 16.905 5.45387L17.2189 5.14002C17.8706 4.48827 17.8706 3.43158 17.2189 2.77983ZM15.9203 6.43859C15.4903 6.25368 14.9895 5.95723 14.5155 5.48323C14.0415 5.00922 13.745 4.50837 13.5601 4.0784L9.34727 8.29123C9.00018 8.63833 8.86405 8.77598 8.74836 8.92431C8.6055 9.10747 8.48302 9.30564 8.38308 9.51533C8.30215 9.68515 8.23991 9.86846 8.08469 10.3341L7.72477 11.4139L8.58482 12.2739L9.66456 11.914C10.1302 11.7588 10.3136 11.6965 10.4834 11.6156C10.6931 11.5157 10.8912 11.3932 11.0744 11.2503C11.2227 11.1346 11.3604 10.9985 11.7075 10.6514L15.9203 6.43859Z" fill="#647937"/>
</svg>
