<svg width="24" height="24" viewBox="0 0 24 24" fill="none" xmlns="http://www.w3.org/2000/svg">
<path d="M4.06808 14.8837C3.29542 13.9175 2 12 2 12C2 12 3.29542 10.0825 4.06808 9.11629C5.61088 7.18711 8.19829 5 12 5C15.8017 5 18.3891 7.18711 19.9319 9.11629C20.7046 10.0825 22 12 22 12C22 12 20.7046 13.9175 19.9319 14.8837C18.3891 16.8129 15.8017 19 12 19C8.19829 19 5.61088 16.8129 4.06808 14.8837Z" stroke="#585D65" stroke-width="1.5"/>
<path d="M15 12C15 13.6569 13.6569 15 12 15C10.3431 15 9 13.6569 9 12C9 10.3431 10.3431 9 12 9C13.6569 9 15 10.3431 15 12Z" stroke="#585D65" stroke-width="1.5"/>
</svg>
