<svg width="14" height="18" viewBox="0 0 14 18" fill="none" xmlns="http://www.w3.org/2000/svg">
<path d="M1.72465 7.2623L4.27643 3.80976C5.9259 1.57805 6.75063 0.4622 7.5201 0.698003C8.28957 0.933807 8.28957 2.3024 8.28957 5.03959V5.29767C8.28957 6.28492 8.28957 6.77854 8.60501 7.08817L8.62171 7.10421C8.94396 7.4073 9.45772 7.40729 10.4852 7.40729C12.3343 7.40729 13.2588 7.4073 13.5713 7.96808C13.5765 7.97737 13.5815 7.98673 13.5864 7.99616C13.8813 8.56563 13.346 9.28988 12.2754 10.7384L9.72363 14.1909C8.07413 16.4226 7.24938 17.5385 6.47991 17.3026C5.71044 17.0668 5.71046 15.6982 5.7105 12.961L5.7105 12.703C5.71052 11.7158 5.71052 11.2221 5.39508 10.9125L5.37839 10.8965C5.05613 10.5934 4.54236 10.5934 3.51484 10.5934C1.66578 10.5934 0.741247 10.5934 0.428788 10.0326C0.423615 10.0233 0.418585 10.014 0.413702 10.0045C0.118742 9.43506 0.654043 8.71081 1.72465 7.2623Z" fill="#F4F1C6"/>
</svg>
