<svg width="14" height="18" viewBox="0 0 14 18" fill="none" xmlns="http://www.w3.org/2000/svg">
<path d="M1.72452 7.2623L4.27631 3.80976C5.92577 1.57805 6.75051 0.4622 7.51998 0.698003C8.28944 0.933807 8.28944 2.3024 8.28944 5.03959V5.29767C8.28944 6.28492 8.28944 6.77854 8.60489 7.08817L8.62158 7.10421C8.94384 7.4073 9.4576 7.40729 10.4851 7.40729C12.3342 7.40729 13.2587 7.4073 13.5712 7.96808C13.5763 7.97737 13.5814 7.98673 13.5863 7.99616C13.8812 8.56563 13.3459 9.28988 12.2753 10.7384L9.7235 14.1909C8.074 16.4226 7.24925 17.5385 6.47978 17.3026C5.71032 17.0668 5.71034 15.6982 5.71038 12.961L5.71038 12.703C5.7104 11.7158 5.7104 11.2221 5.39495 10.9125L5.37826 10.8965C5.056 10.5934 4.54224 10.5934 3.51471 10.5934C1.66565 10.5934 0.741125 10.5934 0.428666 10.0326C0.423492 10.0233 0.418463 10.014 0.41358 10.0045C0.11862 9.43506 0.653921 8.71081 1.72452 7.2623Z" fill="#939E60"/>
</svg>
