<svg width="48" height="48" viewBox="0 0 48 48" fill="none" xmlns="http://www.w3.org/2000/svg">
<g clip-path="url(#clip0_1985_8928)">
<path d="M24 47.9999C20.922 47.9999 18.02 46.6479 16.036 44.2919C15.846 44.0659 15.598 43.9639 15.284 43.9819C12.228 44.2339 9.20595 43.1479 7.02995 40.9719C4.85395 38.7959 3.75595 35.7879 4.01995 32.7179C4.04595 32.4239 3.93395 32.1559 3.70995 31.9679C1.35195 29.9819 0.00195312 27.0779 0.00195312 24.0019C0.00195312 20.9259 1.35395 18.0219 3.70995 16.0379C3.93595 15.8479 4.04795 15.5799 4.02195 15.2859C3.75795 12.2159 4.85595 9.20791 7.03195 7.03191C9.20595 4.85791 12.2 3.75191 15.286 4.02191C15.576 4.04991 15.848 3.93791 16.038 3.71191C18.022 1.35391 20.924 0.00390625 24.002 0.00390625C27.08 0.00390625 29.982 1.35591 31.966 3.71191C32.158 3.93791 32.406 4.04391 32.718 4.02191C35.76 3.76191 38.796 4.85591 40.972 7.03191C43.148 9.20791 44.246 12.2159 43.982 15.2859C43.956 15.5799 44.068 15.8479 44.292 16.0359C46.65 18.0219 48 20.9259 48 24.0019C48 27.0779 46.648 29.9819 44.292 31.9659C44.066 32.1559 43.954 32.4239 43.98 32.7179C44.244 35.7879 43.146 38.7959 40.97 40.9719C38.796 43.1459 35.806 44.2579 32.716 43.9819C32.428 43.9599 32.154 44.0679 31.964 44.2919C29.98 46.6499 27.078 47.9999 24 47.9999ZM15.372 41.9759C16.222 41.9759 17.01 42.3419 17.568 43.0039C19.17 44.9079 21.516 45.9999 24.002 45.9999C26.488 45.9999 28.834 44.9079 30.436 43.0039C31.048 42.2759 31.95 41.9039 32.892 41.9879C35.374 42.1979 37.802 41.3139 39.56 39.5559C41.318 37.7979 42.204 35.3679 41.992 32.8859C41.912 31.9379 42.282 31.0459 43.01 30.4339C44.912 28.8299 46.004 26.4839 46.004 23.9999C46.004 21.5159 44.912 19.1679 43.008 17.5639C42.282 16.9539 41.912 16.0599 41.992 15.1119C42.204 12.6299 41.318 10.1999 39.56 8.44191C37.8 6.68391 35.354 5.79791 32.892 6.00991C31.932 6.09791 31.05 5.72191 30.436 4.99391C28.834 3.08991 26.488 1.99791 24.002 1.99791C21.516 1.99791 19.17 3.08991 17.568 4.99391C16.954 5.72191 16.044 6.09591 15.112 6.00991C12.626 5.79591 10.202 6.68391 8.44395 8.44191C6.68595 10.1999 5.79995 12.6299 6.01195 15.1119C6.09195 16.0599 5.72195 16.9519 4.99395 17.5639C3.09195 19.1679 1.99995 21.5139 1.99995 23.9979C1.99995 26.4819 3.09195 28.8299 4.99595 30.4339C5.72195 31.0439 6.09195 31.9379 6.01195 32.8859C5.79995 35.3679 6.68595 37.7979 8.44395 39.5559C10.202 41.3139 12.642 42.1939 15.112 41.9879C15.2 41.9799 15.286 41.9759 15.372 41.9759ZM24.908 28.5479L34.386 19.4119C34.784 19.0299 34.796 18.3959 34.414 17.9979C34.03 17.6039 33.398 17.5879 33 17.9719L23.508 27.1199C22.338 28.2879 20.434 28.2879 19.24 27.0939L14.684 22.8599C14.28 22.4859 13.646 22.5079 13.27 22.9119C12.894 23.3159 12.916 23.9499 13.32 24.3259L17.852 28.5339C18.828 29.5099 20.112 29.9979 21.392 29.9979C22.672 29.9979 23.942 29.5139 24.91 28.5459L24.908 28.5479Z" fill="#647937"/>
</g>
<defs>
<clipPath id="clip0_1985_8928">
<rect width="48" height="48" fill="white"/>
</clipPath>
</defs>
</svg>
