<svg width="48" height="48" viewBox="0 0 48 48" fill="none" xmlns="http://www.w3.org/2000/svg">
<g clip-path="url(#clip0_1985_8922)">
<path d="M30 4.676V1C30 0.448 29.552 0 29 0C28.448 0 28 0.448 28 1V4.072C27.674 4.026 27.34 4 27 4H22V1C22 0.448 21.552 0 21 0C20.448 0 20 0.448 20 1V4H14V1C14 0.448 13.552 0 13 0C12.448 0 12 0.448 12 1V4H7C6.66 4 6.326 4.024 6 4.072V1C6 0.448 5.552 0 5 0C4.448 0 4 0.448 4 1V4.676C1.638 5.802 0 8.214 0 11V39C0 43.962 4.038 48 9 48H25C29.962 48 34 43.962 34 39V11C34 8.214 32.362 5.802 30 4.676ZM32 39C32 42.86 28.86 46 25 46H9C5.14 46 2 42.86 2 39V11C2 8.242 4.244 6 7 6H27C29.756 6 32 8.242 32 11V39ZM26 13C26 13.552 25.552 14 25 14H9C8.448 14 8 13.552 8 13C8 12.448 8.448 12 9 12H25C25.552 12 26 12.448 26 13ZM26 21C26 21.552 25.552 22 25 22H9C8.448 22 8 21.552 8 21C8 20.448 8.448 20 9 20H25C25.552 20 26 20.448 26 21ZM20 29C20 29.552 19.552 30 19 30H9C8.448 30 8 29.552 8 29C8 28.448 8.448 28 9 28H19C19.552 28 20 28.448 20 29ZM43 0C40.244 0 38 2.242 38 5V40.516C38 42.36 38.748 44.162 40.05 45.466L42.292 47.708C42.488 47.904 42.744 48 43 48C43.256 48 43.512 47.902 43.708 47.708L45.95 45.466C47.254 44.164 48 42.36 48 40.516V5C48 2.242 45.756 0 43 0ZM46 40.516C46 41.832 45.466 43.122 44.536 44.052L43 45.588L41.464 44.052C40.534 43.122 40 41.834 40 40.516V5C40 3.346 41.346 2 43 2C44.654 2 46 3.346 46 5V40.516Z" fill="#647937"/>
</g>
<defs>
<clipPath id="clip0_1985_8922">
<rect width="48" height="48" fill="white"/>
</clipPath>
</defs>
</svg>
