<svg width="48" height="48" viewBox="0 0 48 48" fill="none" xmlns="http://www.w3.org/2000/svg">
<g clip-path="url(#clip0_1985_8926)">
<path d="M33.728 37.17C34.106 37.572 34.088 38.206 33.684 38.584C29.966 42.076 25.104 44 20 44C8.972 44 0 35.028 0 24C0 12.972 8.972 4 20 4C22.546 4 25.024 4.472 27.37 5.402C27.884 5.606 28.134 6.188 27.93 6.7C27.724 7.212 27.142 7.462 26.632 7.26C24.524 6.424 22.294 6 20.002 6C10.076 6 2 14.076 2 24C2 33.924 10.076 42 20 42C24.594 42 28.968 40.27 32.316 37.126C32.714 36.75 33.352 36.766 33.728 37.17ZM19 13V23.586L13.292 29.294C12.902 29.684 12.902 30.318 13.292 30.708C13.488 30.904 13.744 31 14 31C14.256 31 14.512 30.902 14.708 30.708L20.708 24.708C20.896 24.52 21 24.266 21 24V13C21 12.448 20.552 12 20 12C19.448 12 19 12.448 19 13ZM48 15C48 19.62 44.488 23.394 40 23.898V47C40 47.552 39.552 48 39 48C38.448 48 38 47.552 38 47V23.898C33.512 23.394 30 19.62 30 15C30 10.548 33.432 0 38.844 0C44.352 0 48 10.674 48 15ZM46 15C46 10.914 42.408 2 38.844 2C35.308 2 32 10.938 32 15C32 18.86 35.14 22 39 22C42.86 22 46 18.86 46 15Z" fill="#647937"/>
</g>
<defs>
<clipPath id="clip0_1985_8926">
<rect width="48" height="48" fill="white"/>
</clipPath>
</defs>
</svg>
