<svg width="48" height="48" viewBox="0 0 48 48" fill="none" xmlns="http://www.w3.org/2000/svg">
<g clip-path="url(#clip0_1985_8930)">
<path d="M47.954 3.58216C48.104 2.59216 47.784 1.61816 47.078 0.914162C46.372 0.206162 45.396 -0.107838 44.408 0.0361623C41.032 0.542162 36.504 1.64616 34.114 4.03816C33.414 4.73816 32.932 5.66016 32.606 6.67416C31.854 5.13216 30.944 3.83616 30.264 3.04216C29.136 1.71816 26.866 1.71816 25.736 3.04216C24.496 4.49016 22.488 7.61016 22.076 10.8462C20.898 9.72216 18.806 9.78816 17.736 11.0422C16.496 12.4902 14.488 15.6102 14.076 18.8462C12.898 17.7222 10.806 17.7882 9.73601 19.0422C8.35001 20.6642 6.00001 24.3742 6.00001 28.0022C6.00001 32.1022 8.41401 35.5122 9.62401 36.9642L0.292012 46.2922C-0.0979883 46.6822 -0.0979883 47.3162 0.292012 47.7062C0.488012 47.9022 0.744012 47.9982 1.00001 47.9982C1.25601 47.9982 1.51201 47.9002 1.70801 47.7062L11.04 38.3742C12.492 39.5842 15.902 41.9982 20.002 41.9982C23.628 41.9982 27.342 39.6502 28.962 38.2622C29.622 37.6962 30.002 36.8702 30.002 35.9982C30.002 35.2182 29.698 34.4742 29.16 33.9202C32.396 33.5062 35.514 31.5002 36.964 30.2602C37.624 29.6942 38.004 28.8682 38.004 27.9962C38.004 27.2162 37.7 26.4722 37.162 25.9182C40.398 25.5042 43.516 23.4982 44.966 22.2582C45.626 21.6922 46.006 20.8662 46.006 19.9942C46.006 19.1222 45.628 18.2962 44.966 17.7302C44.17 17.0502 42.872 16.1382 41.326 15.3842C42.334 15.0582 43.256 14.5742 43.958 13.8702C46.35 11.4782 47.454 6.95016 47.958 3.57416L47.954 3.58216ZM27.256 4.34016C27.51 4.04416 27.83 4.00016 28 4.00016C28.17 4.00016 28.49 4.04416 28.744 4.34016C30.238 6.08416 31.838 9.04816 31.988 11.6162C31.99 11.7902 31.994 11.9622 32 12.1282C31.986 14.1382 31.664 14.5682 31.084 15.3362C30.946 15.5202 25.99 20.5962 25.99 20.5962C25.996 20.4082 26 20.2102 26 20.0002C26 17.7282 25.08 15.4262 24.05 13.6222C24.05 13.5762 24.05 13.5302 24.046 13.4822C24.012 13.1762 24 12.3142 24 11.9982C24 9.34816 25.688 6.17016 27.256 4.33816V4.34016ZM19.256 12.3402C19.51 12.0442 19.83 12.0002 20 12.0002C20.17 12.0002 20.49 12.0442 20.744 12.3402C22.312 14.1722 24 17.3482 24 20.0002C24 22.1222 23.676 22.5522 23.084 23.3362C22.946 23.5202 17.99 28.5962 17.99 28.5962C17.996 28.4082 18 28.2102 18 28.0002C18 25.7282 17.078 23.4222 16.048 21.6202C16.054 21.5582 16.054 21.4962 16.048 21.4322C16.014 21.1262 16.002 20.3142 16.002 20.0002C16.002 17.3502 17.688 14.1722 19.256 12.3402ZM8.00001 28.0002C8.00001 25.3502 9.68801 22.1722 11.256 20.3402C11.51 20.0442 11.83 20.0002 12 20.0002C12.17 20.0002 12.49 20.0442 12.744 20.3402C14.312 22.1722 16 25.3482 16 28.0002C16 30.1222 15.676 30.5522 15.084 31.3362C14.946 31.5182 11.05 35.5362 11.05 35.5362C9.98401 34.2162 8.00001 31.3142 8.00001 27.9982V28.0002ZM27.66 36.7442C25.828 38.3122 22.648 40.0002 20 40.0002C16.684 40.0002 13.782 38.0182 12.464 36.9522C12.464 36.9522 16.478 33.0562 16.664 32.9182C17.448 32.3262 17.878 32.0022 20.002 32.0022C22.65 32.0022 25.83 33.6902 27.662 35.2582C27.88 35.4462 28.002 35.7102 28.002 36.0022C28.002 36.2942 27.88 36.5582 27.662 36.7462L27.66 36.7442ZM35.66 28.7442C33.828 30.3122 30.648 32.0002 28 32.0002C28 32.0002 26.72 32.0262 26.482 32.0102C24.664 30.9562 22.314 30.0002 20 30.0002C19.79 30.0002 19.592 30.0042 19.404 30.0102C19.404 30.0102 24.476 25.0562 24.662 24.9162C25.446 24.3242 25.876 24.0002 28 24.0002C30.648 24.0002 33.828 25.6882 35.66 27.2562C35.878 27.4442 36 27.7082 36 28.0002C36 28.2922 35.878 28.5562 35.66 28.7442ZM44 20.0002C44 20.2922 43.878 20.5562 43.66 20.7442C41.828 22.3122 38.648 24.0002 36 24.0002C35.708 24.0002 34.784 23.9862 34.398 23.9602C32.592 22.9262 30.28 22.0002 28 22.0002C27.79 22.0002 27.592 22.0042 27.404 22.0102C27.404 22.0102 32.472 17.0482 32.662 16.9162C34 16.0002 36.21 16.0082 36.358 16.0102C38.93 16.1502 41.91 17.7562 43.66 19.2542C43.878 19.4422 44 19.7062 44 19.9982V20.0002ZM34.128 13.8642C33.884 11.5862 33.804 7.17416 35.526 5.45216C37.09 3.88616 40.35 2.66616 44.704 2.01416C45.058 1.96016 45.412 2.07416 45.662 2.32616C45.914 2.57816 46.028 2.92816 45.974 3.28616C45.598 5.80616 44.65 10.3502 42.536 12.4642C40.792 14.2062 36.404 14.1182 34.128 13.8642Z" fill="#647937"/>
</g>
<defs>
<clipPath id="clip0_1985_8930">
<rect width="48" height="48" fill="white"/>
</clipPath>
</defs>
</svg>
