<svg width="48" height="48" viewBox="0 0 48 48" fill="none" xmlns="http://www.w3.org/2000/svg">
<g clip-path="url(#clip0_1985_8924)">
<path d="M20 22C20 23.104 19.104 24 18 24C16.896 24 16 23.104 16 22C16 20.896 16.896 20 18 20C19.104 20 20 20.896 20 22ZM30 20C28.896 20 28 20.896 28 22C28 23.104 28.896 24 30 24C31.104 24 32 23.104 32 22C32 20.896 31.104 20 30 20ZM48 22C48 25.308 45.308 28 42 28H40.8C39.846 30.292 38.22 32.616 36.15 34.6C39.388 37.962 41.404 42.198 41.992 46.876C42.06 47.424 41.672 47.924 41.124 47.994C41.082 48 41.04 48.002 40.998 48.002C40.502 48.002 40.07 47.632 40.008 47.126C39.472 42.85 37.618 38.982 34.644 35.92C31.612 38.344 27.88 40.002 24.004 40.002H24C20.122 40.002 16.39 38.342 13.356 35.92C10.382 38.982 8.528 42.85 7.992 47.126C7.93 47.632 7.498 48.002 7.002 48.002C6.96 48.002 6.918 48.002 6.876 47.994C6.33 47.926 5.94 47.426 6.008 46.876C6.596 42.198 8.612 37.964 11.85 34.6C9.78 32.616 8.154 30.292 7.2 28H6C2.692 28 0 25.308 0 22C0 18.952 2.288 16.426 5.234 16.048C6.666 6.842 14.586 0 24 0C33.414 0 41.348 6.852 42.77 16.07C45.76 16.478 48 18.982 48 22ZM46 22C46 19.794 44.206 18 42 18C41.49 18 40.948 17.628 40.89 17.122C39.942 8.5 32.682 2 24 2C20.692 2 18 4.692 18 8C18 11.308 20.692 14 24 14C26.916 14 29.4 11.92 29.908 9.052C30.004 8.508 30.532 8.138 31.066 8.242C31.61 8.338 31.972 8.858 31.876 9.4C31.2 13.224 27.888 16 24 16C19.588 16 16 12.412 16 8C16 6.226 16.58 4.588 17.56 3.26C11.948 5.552 7.81 10.758 7.11 17.122C7.048 17.68 6.444 18.086 5.906 17.996C3.794 18.002 2 19.796 2 22.002C2 24.208 3.794 26.002 6 26.002H7.882C8.304 26.002 8.68 26.266 8.824 26.662C10.788 32.118 17.148 38.004 24 38.004H24.004C30.854 38.004 37.212 32.118 39.176 26.662C39.318 26.266 39.696 26.002 40.118 26.002H42C44.206 26.002 46 24.208 46 22.002V22Z" fill="#647937"/>
</g>
<defs>
<clipPath id="clip0_1985_8924">
<rect width="48" height="48" fill="white"/>
</clipPath>
</defs>
</svg>
