<svg width="25" height="24" viewBox="0 0 25 24" fill="none" xmlns="http://www.w3.org/2000/svg">
<path d="M23.1288 7.61007C23.1168 6.7103 22.9484 5.81949 22.631 4.97746C22.3558 4.26722 21.9355 3.62219 21.3969 3.08359C20.8583 2.54499 20.2133 2.12466 19.503 1.84946C18.6718 1.53744 17.7937 1.36872 16.9061 1.3505C15.7632 1.29941 15.4009 1.28516 12.4998 1.28516C9.59867 1.28516 9.22682 1.28516 8.09228 1.3505C7.20504 1.36886 6.32733 1.53757 5.4965 1.84946C4.78615 2.12447 4.14102 2.54473 3.6024 3.08335C3.06377 3.62198 2.64351 4.26711 2.3685 4.97746C2.05585 5.80803 1.88751 6.68594 1.87073 7.57324C1.81964 8.71728 1.8042 9.07962 1.8042 11.9807C1.8042 14.8818 1.8042 15.2525 1.87073 16.3882C1.88855 17.2768 2.05606 18.1536 2.3685 18.9864C2.64397 19.6965 3.06454 20.3414 3.60335 20.8798C4.14215 21.4182 4.78734 21.8382 5.49769 22.1132C6.32624 22.4377 7.2041 22.6185 8.09347 22.6478C9.23752 22.6989 9.59986 22.7143 12.501 22.7143C15.402 22.7143 15.7739 22.7143 16.9084 22.6478C17.796 22.6303 18.6742 22.462 19.5054 22.15C20.2155 21.8745 20.8603 21.454 21.3989 20.9155C21.9374 20.3769 22.3579 19.7321 22.6334 19.022C22.9458 18.1904 23.1134 17.3137 23.1312 16.4238C23.1823 15.281 23.1977 14.9186 23.1977 12.0164C23.1953 9.11526 23.1953 8.74698 23.1288 7.61007ZM12.4926 17.4669C9.45848 17.4669 7.00051 15.0089 7.00051 11.9748C7.00051 8.94063 9.45848 6.48266 12.4926 6.48266C13.9492 6.48266 15.3462 7.06129 16.3762 8.09126C17.4061 9.12124 17.9848 10.5182 17.9848 11.9748C17.9848 13.4314 17.4061 14.8283 16.3762 15.8583C15.3462 16.8883 13.9492 17.4669 12.4926 17.4669ZM18.2034 7.56017C18.0351 7.56033 17.8685 7.52731 17.7131 7.46301C17.5576 7.3987 17.4164 7.30437 17.2974 7.18542C17.1785 7.06647 17.0842 6.92523 17.0199 6.76978C16.9555 6.61433 16.9225 6.44773 16.9227 6.27951C16.9227 6.11141 16.9558 5.94495 17.0201 5.78965C17.0845 5.63434 17.1787 5.49323 17.2976 5.37436C17.4165 5.2555 17.5576 5.16121 17.7129 5.09688C17.8682 5.03255 18.0347 4.99944 18.2028 4.99944C18.3709 4.99944 18.5373 5.03255 18.6926 5.09688C18.8479 5.16121 18.989 5.2555 19.1079 5.37436C19.2268 5.49323 19.3211 5.63434 19.3854 5.78965C19.4497 5.94495 19.4828 6.11141 19.4828 6.27951C19.4828 6.98756 18.9102 7.56017 18.2034 7.56017Z" fill="#939E60"/>
<path d="M12.4926 15.5423C14.4629 15.5423 16.0602 13.9451 16.0602 11.9748C16.0602 10.0045 14.4629 8.40722 12.4926 8.40722C10.5223 8.40722 8.92507 10.0045 8.92507 11.9748C8.92507 13.9451 10.5223 15.5423 12.4926 15.5423Z" fill="#939E60"/>
</svg>
