<svg width="16" height="16" viewBox="0 0 16 16" fill="none" xmlns="http://www.w3.org/2000/svg">
<path fill-rule="evenodd" clip-rule="evenodd" d="M5.99672 1.67695C5.81593 1.73423 5.63738 1.79932 5.46159 1.87214C4.65687 2.20546 3.92568 2.69403 3.30977 3.30994C2.69387 3.92584 2.2053 4.65703 1.87197 5.46175C1.60744 6.10039 1.44479 6.77541 1.38892 7.46221H4.60167C4.62462 6.67639 4.69779 5.90197 4.81939 5.16805C4.96849 4.26815 5.18878 3.43892 5.47238 2.72993C5.62721 2.34285 5.80214 1.98851 5.99672 1.67695ZM7.99984 0.291666C6.98757 0.291666 5.98521 0.491048 5.04999 0.878428C4.11477 1.26581 3.26501 1.8336 2.54922 2.54938C1.83344 3.26517 1.26565 4.11493 0.878266 5.05015C0.490886 5.98537 0.291504 6.98773 0.291504 8C0.291504 9.01227 0.490886 10.0146 0.878266 10.9499C1.26565 11.8851 1.83344 12.7348 2.54922 13.4506C3.26501 14.1664 4.11477 14.7342 5.04999 15.1216C5.9852 15.509 6.98756 15.7083 7.99984 15.7083C9.01211 15.7083 10.0145 15.509 10.9497 15.1216C11.8849 14.7342 12.7347 14.1664 13.4505 13.4506C14.1662 12.7348 14.734 11.8851 15.1214 10.9499C15.5088 10.0146 15.7082 9.01227 15.7082 8C15.7082 6.98773 15.5088 5.98537 15.1214 5.05015C14.734 4.11493 14.1662 3.26517 13.4505 2.54939C12.7347 1.8336 11.8849 1.26581 10.9497 0.878428C10.0145 0.491048 9.01211 0.291666 7.99984 0.291666ZM7.99984 1.36725C7.8125 1.36725 7.57049 1.45745 7.28907 1.74886C7.00558 2.04243 6.72177 2.50253 6.47103 3.12939C6.22195 3.75209 6.01969 4.50381 5.88051 5.34386C5.76884 6.01784 5.70036 6.73306 5.67774 7.46221L10.3219 7.46221C10.2993 6.73306 10.2308 6.01784 10.1192 5.34386C9.97998 4.50381 9.77773 3.7521 9.52865 3.12939C9.2779 2.50253 8.9941 2.04243 8.7106 1.74886C8.42919 1.45745 8.18717 1.36725 7.99984 1.36725ZM11.398 7.46221C11.3751 6.67639 11.3019 5.90198 11.1803 5.16805C11.0312 4.26815 10.8109 3.43892 10.5273 2.72993C10.3725 2.34285 10.1975 1.98851 10.003 1.67695C10.1837 1.73423 10.3623 1.79932 10.5381 1.87214C11.3428 2.20546 12.074 2.69403 12.6899 3.30994C13.3058 3.92584 13.7944 4.65703 14.1277 5.46176C14.3922 6.10039 14.5549 6.77541 14.6108 7.46221H11.398ZM10.3219 8.53779H5.67774C5.70036 9.26694 5.76884 9.98216 5.88051 10.6561C6.01969 11.4962 6.22195 12.2479 6.47103 12.8706C6.72177 13.4975 7.00558 13.9576 7.28907 14.2511C7.57049 14.5426 7.8125 14.6328 7.99984 14.6328C8.18717 14.6328 8.42919 14.5426 8.7106 14.2511C8.9941 13.9576 9.2779 13.4975 9.52865 12.8706C9.77773 12.2479 9.97998 11.4962 10.1192 10.6561C10.2308 9.98216 10.2993 9.26694 10.3219 8.53779ZM10.003 14.323C10.1975 14.0115 10.3725 13.6572 10.5273 13.2701C10.8109 12.5611 11.0312 11.7318 11.1803 10.832C11.3019 10.098 11.3751 9.32361 11.398 8.53779H14.6108C14.5549 9.22459 14.3922 9.89961 14.1277 10.5382C13.7944 11.343 13.3058 12.0742 12.6899 12.6901C12.074 13.306 11.3428 13.7945 10.5381 14.1279C10.3623 14.2007 10.1837 14.2658 10.003 14.323ZM5.99672 14.323C5.80214 14.0115 5.62721 13.6572 5.47238 13.2701C5.18878 12.5611 4.96849 11.7318 4.81939 10.832C4.69779 10.098 4.62462 9.32361 4.60167 8.53779H1.38892C1.44479 9.22459 1.60744 9.89961 1.87197 10.5382C2.2053 11.343 2.69387 12.0742 3.30977 12.6901C3.92568 13.306 4.65687 13.7945 5.46159 14.1279C5.63738 14.2007 5.81593 14.2658 5.99672 14.323Z" fill="#585D65"/>
</svg>
