<svg width="40" height="49" viewBox="0 0 40 49" fill="none" xmlns="http://www.w3.org/2000/svg">
<path d="M33.031 28.3463C29.6935 28.3463 27.005 25.5078 27.2599 22.1386C27.4685 19.2309 29.9021 16.9232 32.8224 16.8309C35.905 16.7155 38.5008 19.0001 38.8021 22.0232L37.9445 22.1155C37.6896 19.4617 35.3719 17.5001 32.6602 17.7078C30.3425 17.8694 28.4419 19.6924 28.1638 21.9771C27.793 24.954 30.1339 27.4924 33.0542 27.4924C33.425 27.4924 33.7959 27.4463 34.1435 27.3771L34.3289 28.2078C33.8886 28.3001 33.4482 28.3463 33.031 28.3463Z" fill="white" stroke="white" stroke-width="0.1875" stroke-miterlimit="10"/>
<path d="M8.55598 14.8924C4.24504 15.2386 0.675772 11.6617 1.02343 7.39242C1.30155 4.02319 4.03644 1.27704 7.4203 1.02319C11.7312 0.677039 15.3005 4.25396 14.9528 8.52319C14.6747 11.8924 11.9398 14.6386 8.55598 14.8924ZM8.48645 1.87704C4.70859 1.57704 1.57968 4.69243 1.88098 8.45396C2.11275 11.4078 4.52317 13.8078 7.48984 14.0386C11.2677 14.3386 14.3966 11.2232 14.0953 7.46165C13.8635 4.50781 11.4531 2.10781 8.48645 1.87704Z" fill="white" stroke="white" stroke-width="0.1875" stroke-miterlimit="10"/>
<path d="M20.9788 48.7693L20.7934 48.7001C20.7471 48.677 16.0653 46.6232 11.4299 42.6309C5.28797 37.3232 1.99681 31.0001 1.97363 24.3539C1.97363 23.3385 2.1127 22.3693 2.414 21.4232C2.43718 21.3539 2.46036 21.2616 2.50672 21.1693C3.36427 18.6539 5.54291 16.877 8.20827 16.5078C10.8736 16.1386 13.4695 17.2693 14.976 19.4616L15.0687 19.6001C15.0919 19.6232 16.8533 22.5539 20.0286 24.9539C24.2468 28.1616 28.8359 29.0155 33.6567 27.4924H33.6799C33.8653 27.4462 38.0372 26.3155 37.8981 22.0924C37.8981 21.8155 38.1299 21.5847 38.4312 21.6309C38.6166 21.6539 38.7557 21.8155 38.7789 21.977C39.057 23.177 39.7755 27.4463 37.9445 32.6155C35.534 39.4001 29.8788 44.8001 21.1411 48.6539L20.9788 48.7693ZM9.22807 17.2924C8.92677 17.2924 8.62546 17.3155 8.32416 17.3616C5.9601 17.6847 4.10594 19.2078 3.31791 21.4462C3.29474 21.5155 3.27155 21.6078 3.24837 21.677C2.97025 22.5309 2.8312 23.4309 2.85437 24.3539C2.90073 32.4309 7.86062 38.4078 12.0093 41.9847C16.0421 45.4693 20.0981 47.4309 20.9788 47.8232C29.4153 44.0616 34.8387 38.8693 37.1565 32.3616C38.2226 29.3386 38.3848 26.6155 38.2921 24.7232C37.1101 27.377 34.1898 28.2539 33.9348 28.3232C27.5611 30.3309 22.5781 27.977 19.4955 25.6232C16.2739 23.1539 14.4893 20.2924 14.3502 20.0616L14.2807 19.9693C13.0986 18.2616 11.2445 17.2924 9.22807 17.2924Z" fill="white" stroke="white" stroke-width="0.1875" stroke-miterlimit="10"/>
</svg>
