<svg width="20" height="20" viewBox="0 0 20 20" fill="none" xmlns="http://www.w3.org/2000/svg">
<path fill-rule="evenodd" clip-rule="evenodd" d="M9.58317 2.29167C5.55609 2.29167 2.2915 5.55626 2.2915 9.58333C2.2915 13.6104 5.55609 16.875 9.58317 16.875C13.6102 16.875 16.8748 13.6104 16.8748 9.58333C16.8748 5.55626 13.6102 2.29167 9.58317 2.29167ZM1.0415 9.58333C1.0415 4.8659 4.86574 1.04167 9.58317 1.04167C14.3006 1.04167 18.1248 4.8659 18.1248 9.58333C18.1248 14.3008 14.3006 18.125 9.58317 18.125C4.86574 18.125 1.0415 14.3008 1.0415 9.58333Z" fill="#585D65"/>
<path fill-rule="evenodd" clip-rule="evenodd" d="M14.9746 14.9747C15.2186 14.7306 15.6144 14.7306 15.8584 14.9747L18.7751 17.8914C19.0192 18.1355 19.0192 18.5312 18.7751 18.7753C18.531 19.0194 18.1353 19.0194 17.8912 18.7753L14.9746 15.8586C14.7305 15.6145 14.7305 15.2188 14.9746 14.9747Z" fill="#585D65"/>
</svg>
