<svg width="20" height="20" viewBox="0 0 20 20" fill="none" xmlns="http://www.w3.org/2000/svg">
<path d="M7.62772 4.50731C8.68326 2.61376 9.21103 1.66699 10.0001 1.66699C10.7891 1.66699 11.3169 2.61376 12.3724 4.5073L12.6455 4.99719C12.9455 5.53527 13.0955 5.80431 13.3293 5.98183C13.5631 6.15935 13.8544 6.22524 14.4368 6.35703L14.9671 6.47702C17.0169 6.94079 18.0417 7.17267 18.2856 7.95677C18.5294 8.74086 17.8307 9.55788 16.4333 11.1919L16.0718 11.6147C15.6747 12.079 15.4762 12.3112 15.3869 12.5984C15.2975 12.8857 15.3276 13.1954 15.3876 13.815L15.4423 14.379C15.6535 16.5592 15.7591 17.6492 15.1208 18.1338C14.4824 18.6184 13.5229 18.1766 11.6037 17.293L11.1072 17.0644C10.5618 16.8133 10.2891 16.6877 10.0001 16.6877C9.71104 16.6877 9.43835 16.8133 8.89299 17.0644L8.39648 17.293C6.47731 18.1766 5.51773 18.6184 4.87937 18.1338C4.24102 17.6492 4.34665 16.5592 4.55791 14.379L4.61257 13.815C4.6726 13.1954 4.70262 12.8857 4.6133 12.5984C4.52398 12.3112 4.32544 12.079 3.92835 11.6147L3.56683 11.1919C2.16946 9.55789 1.47077 8.74086 1.7146 7.95677C1.95843 7.17267 2.9833 6.94079 5.03303 6.47702L5.56332 6.35703C6.14579 6.22524 6.43703 6.15935 6.67087 5.98183C6.90471 5.80431 7.05469 5.53527 7.35464 4.99719L7.62772 4.50731Z" fill="#939E60"/>
</svg>
