<svg width="20" height="20" viewBox="0 0 20 20" fill="none" xmlns="http://www.w3.org/2000/svg">
<path d="M7.6276 4.50731C8.68314 2.61376 9.21091 1.66699 9.99996 1.66699C10.789 1.66699 11.3168 2.61376 12.3723 4.5073L12.6454 4.99719C12.9454 5.53527 13.0953 5.80431 13.3292 5.98183C13.563 6.15935 13.8543 6.22524 14.4367 6.35703L14.967 6.47702C17.0167 6.94079 18.0416 7.17267 18.2854 7.95677C18.5293 8.74086 17.8306 9.55788 16.4332 11.1919L16.0717 11.6147C15.6746 12.079 15.4761 12.3112 15.3867 12.5984C15.2974 12.8857 15.3274 13.1954 15.3875 13.815L15.4421 14.379C15.6534 16.5592 15.759 17.6492 15.1207 18.1338C14.4823 18.6184 13.5227 18.1766 11.6036 17.293L11.1071 17.0644C10.5617 16.8133 10.289 16.6877 9.99996 16.6877C9.71091 16.6877 9.43823 16.8133 8.89287 17.0644L8.39635 17.293C6.47719 18.1766 5.51761 18.6184 4.87925 18.1338C4.24089 17.6492 4.34653 16.5592 4.55779 14.379L4.61245 13.815C4.67248 13.1954 4.7025 12.8857 4.61318 12.5984C4.52386 12.3112 4.32531 12.079 3.92822 11.6147L3.56671 11.1919C2.16933 9.55789 1.47065 8.74086 1.71448 7.95677C1.95831 7.17267 2.98317 6.94079 5.03291 6.47702L5.5632 6.35703C6.14567 6.22524 6.4369 6.15935 6.67075 5.98183C6.90459 5.80431 7.05456 5.53527 7.35452 4.99719L7.6276 4.50731Z" fill="#D5D6D8"/>
</svg>
