<svg width="25" height="24" viewBox="0 0 25 24" fill="none" xmlns="http://www.w3.org/2000/svg">
<g clip-path="url(#clip0_370_6894)">
<path d="M12.5 0C5.876 0 0.5 5.376 0.5 12C0.5 18.624 5.876 24 12.5 24C19.124 24 24.5 18.624 24.5 12C24.5 5.376 19.124 0 12.5 0ZM18.068 8.16C17.888 10.056 17.108 14.664 16.712 16.788C16.544 17.688 16.208 17.988 15.896 18.024C15.2 18.084 14.672 17.568 14 17.124C12.944 16.428 12.344 15.996 11.324 15.324C10.136 14.544 10.904 14.112 11.588 13.416C11.768 13.236 14.84 10.44 14.9 10.188C14.9083 10.1498 14.9072 10.1102 14.8968 10.0726C14.8863 10.0349 14.8668 10.0004 14.84 9.972C14.768 9.912 14.672 9.936 14.588 9.948C14.48 9.972 12.8 11.088 9.524 13.296C9.044 13.62 8.612 13.788 8.228 13.776C7.796 13.764 6.98 13.536 6.368 13.332C5.612 13.092 5.024 12.96 5.072 12.54C5.096 12.324 5.396 12.108 5.96 11.88C9.464 10.356 11.792 9.348 12.956 8.868C16.292 7.476 16.976 7.236 17.432 7.236C17.528 7.236 17.756 7.26 17.9 7.38C18.02 7.476 18.056 7.608 18.068 7.704C18.056 7.776 18.08 7.992 18.068 8.16Z" fill="#939E60"/>
</g>
<defs>
<clipPath id="clip0_370_6894">
<rect width="24" height="24" fill="white" transform="translate(0.5)"/>
</clipPath>
</defs>
</svg>
