<svg width="20" height="20" viewBox="0 0 20 20" fill="none" xmlns="http://www.w3.org/2000/svg">
<path d="M10 0C11.8452 0 13.3293 0 14.5401 0.0878298L11.0986 5.25002H6.40139L9.9014 0H10Z" fill="#585D65"/>
<path d="M1.46447 1.46447C2.71683 0.212099 4.62194 0.0307184 8.09566 0.00444896L4.59861 5.25002H0.10418C0.251429 3.48593 0.606802 2.32213 1.46447 1.46447Z" fill="#585D65"/>
<path fill-rule="evenodd" clip-rule="evenodd" d="M0 10C0 8.76326 0 7.68875 0.0264445 6.75002H19.9736C20 7.68875 20 8.76326 20 10C20 14.714 20 17.0711 18.5355 18.5355C17.0711 20 14.714 20 10 20C5.28595 20 2.92893 20 1.46447 18.5355C0 17.0711 0 14.714 0 10ZM11.014 10.5852C12.338 11.4395 13 11.8666 13 12.5C13 13.1334 12.338 13.5605 11.014 14.4148C9.67188 15.2807 9.0008 15.7137 8.5004 15.3958C8 15.0779 8 14.2186 8 12.5C8 10.7814 8 9.92209 8.5004 9.60419C9.0008 9.28628 9.67186 9.71925 11.014 10.5852Z" fill="#585D65"/>
<path d="M19.8958 5.25002C19.7486 3.48593 19.3932 2.32213 18.5355 1.46447C17.9382 0.867142 17.1924 0.513454 16.1987 0.304027L12.9014 5.25002H19.8958Z" fill="#585D65"/>
</svg>
