<svg width="25" height="24" viewBox="0 0 25 24" fill="none" xmlns="http://www.w3.org/2000/svg">
<g clip-path="url(#clip0_370_6890)">
<path d="M24.0186 5.78049C23.7436 4.68293 22.9183 3.80488 21.8868 3.5122C20.0301 3 12.5344 3 12.5344 3C12.5344 3 4.96991 3 3.11318 3.5122C2.08166 3.80488 1.25645 4.68293 0.981375 5.78049C0.5 7.82927 0.5 12 0.5 12C0.5 12 0.5 16.1707 0.981375 18.2195C1.25645 19.3171 2.08166 20.1951 3.11318 20.4878C4.96991 21 12.4656 21 12.4656 21C12.4656 21 19.9613 21 21.8181 20.4878C22.8496 20.1951 23.6748 19.3171 23.9499 18.2195C24.4312 16.2439 24.4312 12 24.4312 12C24.4312 12 24.5 7.82927 24.0186 5.78049ZM10.0587 15.8049V8.19512L16.3166 12L10.0587 15.8049Z" fill="#939E60"/>
</g>
<defs>
<clipPath id="clip0_370_6890">
<rect width="24" height="24" fill="white" transform="translate(0.5)"/>
</clipPath>
</defs>
</svg>
